<svg xmlns="http://www.w3.org/2000/svg" xmlns:xlink="http://www.w3.org/1999/xlink" viewBox="0 0 1157.74 782.6"><defs><style>.cls-1,.cls-3{fill:none;}.cls-2{isolation:isolate;}.cls-3{stroke:#fff;stroke-linecap:round;stroke-miterlimit:10;stroke-width:6.25px;stroke-dasharray:7.03 37.48;}.cls-4{clip-path:url(#clip-path);}.cls-5{fill:#333;}.cls-6{fill:#313131;}.cls-7{fill:#303030;}.cls-8{fill:url(#_ÂÁ_Ï_ÌÌ_È_ËÂÌÚ_950);}.cls-9{fill:url(#_ÂÁ_Ï_ÌÌ_È_ËÂÌÚ_949);}.cls-10{fill:url(#_ÂÁ_Ï_ÌÌ_È_ËÂÌÚ_106);}.cls-11{fill:#fff;}.cls-12{clip-path:url(#clip-path-2);}.cls-13{fill:url(#_ÂÁ_Ï_ÌÌ_È_ËÂÌÚ_950-2);}.cls-14{fill:url(#_ÂÁ_Ï_ÌÌ_È_ËÂÌÚ_949-2);}.cls-15{fill:url(#_ÂÁ_Ï_ÌÌ_È_ËÂÌÚ_106-2);}.cls-16{fill:url(#_ÂÁ_Ï_ÌÌ_È_ËÂÌÚ_106-3);}.cls-17{fill:url(#_ÂÁ_Ï_ÌÌ_È_ËÂÌÚ_106-4);}.cls-18{fill:url(#_ÂÁ_Ï_ÌÌ_È_ËÂÌÚ_928);}.cls-19{fill:url(#_ÂÁ_Ï_ÌÌ_È_ËÂÌÚ_926);}.cls-20{fill:url(#_ÂÁ_Ï_ÌÌ_È_ËÂÌÚ_106-5);}.cls-21{clip-path:url(#clip-path-3);}.cls-22{fill:url(#_ÂÁ_Ï_ÌÌ_È_ËÂÌÚ_950-3);}.cls-23{fill:url(#_ÂÁ_Ï_ÌÌ_È_ËÂÌÚ_949-3);}.cls-24{fill:url(#_ÂÁ_Ï_ÌÌ_È_ËÂÌÚ_106-6);}.cls-25{clip-path:url(#clip-path-4);}.cls-26{fill:url(#_ÂÁ_Ï_ÌÌ_È_ËÂÌÚ_950-4);}.cls-27{fill:url(#_ÂÁ_Ï_ÌÌ_È_ËÂÌÚ_949-4);}.cls-28{fill:url(#_ÂÁ_Ï_ÌÌ_È_ËÂÌÚ_106-7);}.cls-29{fill:url(#_ÂÁ_Ï_ÌÌ_È_ËÂÌÚ_106-8);}.cls-30{fill:url(#_ÂÁ_Ï_ÌÌ_È_ËÂÌÚ_106-9);}.cls-31{fill:url(#_ÂÁ_Ï_ÌÌ_È_ËÂÌÚ_928-2);}.cls-32{fill:url(#_ÂÁ_Ï_ÌÌ_È_ËÂÌÚ_926-2);}.cls-33{fill:url(#_ÂÁ_Ï_ÌÌ_È_ËÂÌÚ_106-10);}.cls-34{fill:#21a2dc;}.cls-35{fill:url(#_ÂÁ_Ï_ÌÌ_È_ËÂÌÚ_872);}.cls-36{fill:#ef4c43;}.cls-37{fill:#e4a44b;}.cls-38{fill:url(#_ÂÁ_Ï_ÌÌ_È_ËÂÌÚ_72);}.cls-39{fill:url(#_ÂÁ_Ï_ÌÌ_È_ËÂÌÚ_72-2);}.cls-40{fill:url(#_ÂÁ_Ï_ÌÌ_È_ËÂÌÚ_72-3);}.cls-41{fill:url(#_ÂÁ_Ï_ÌÌ_È_ËÂÌÚ_72-4);}.cls-42{fill:url(#_ÂÁ_Ï_ÌÌ_È_ËÂÌÚ_873);}.cls-43{fill:url(#_ÂÁ_Ï_ÌÌ_È_ËÂÌÚ_872-2);}.cls-44{fill:url(#_ÂÁ_Ï_ÌÌ_È_ËÂÌÚ_872-3);}.cls-45{fill:url(#_ÂÁ_Ï_ÌÌ_È_ËÂÌÚ_887);}.cls-46{fill:url(#_ÂÁ_Ï_ÌÌ_È_ËÂÌÚ_875);}.cls-47{fill:url(#_ÂÁ_Ï_ÌÌ_È_ËÂÌÚ_872-4);}.cls-48{fill:url(#_ÂÁ_Ï_ÌÌ_È_ËÂÌÚ_72-5);}.cls-49{fill:url(#_ÂÁ_Ï_ÌÌ_È_ËÂÌÚ_72-6);}.cls-50{fill:url(#_ÂÁ_Ï_ÌÌ_È_ËÂÌÚ_872-5);}.cls-51{fill:url(#_ÂÁ_Ï_ÌÌ_È_ËÂÌÚ_872-6);}.cls-52{fill:url(#_ÂÁ_Ï_ÌÌ_È_ËÂÌÚ_61);}.cls-53{mix-blend-mode:overlay;}.cls-54{fill:url(#_ÂÁ_Ï_ÌÌ_È_ËÂÌÚ_64);}.cls-55{fill:#4340c1;}.cls-56{fill:#4050d7;}.cls-57{fill:url(#_ÂÁ_Ï_ÌÌ_È_ËÂÌÚ_61-2);}.cls-58{fill:url(#_ÂÁ_Ï_ÌÌ_È_ËÂÌÚ_64-2);}</style><clipPath id="clip-path"><path class="cls-1" d="M1052.92,632.75l23.22,13.5a16.14,16.14,0,0,0-2.79-1.29l-23.22-13.49A16.88,16.88,0,0,1,1052.92,632.75Z"/></clipPath><linearGradient id="_ÂÁ_Ï_ÌÌ_È_ËÂÌÚ_950" x1="1050.48" y1="669.82" x2="1025.97" y2="720.06" gradientUnits="userSpaceOnUse"><stop offset="0.4" stop-color="#4340c1"/><stop offset="0.58" stop-color="#4340c1"/><stop offset="0.99" stop-color="#556afb"/></linearGradient><linearGradient id="_ÂÁ_Ï_ÌÌ_È_ËÂÌÚ_949" x1="972.13" y1="741.86" x2="1046.23" y2="646.08" gradientUnits="userSpaceOnUse"><stop offset="0.02" stop-color="#485ae4"/><stop offset="0.21" stop-color="#4340c1"/><stop offset="0.58" stop-color="#4340c1"/><stop offset="0.99" stop-color="#556afb"/></linearGradient><linearGradient id="_ÂÁ_Ï_ÌÌ_È_ËÂÌÚ_106" x1="947.88" y1="779.81" x2="1089.35" y2="658.83" gradientUnits="userSpaceOnUse"><stop offset="0" stop-color="#4340c1"/><stop offset="0.71" stop-color="#556afb"/></linearGradient><clipPath id="clip-path-2"><path class="cls-1" d="M954.94,573.84l23.22,13.49a16.88,16.88,0,0,0-2.79-1.28l-23.22-13.5A16.14,16.14,0,0,1,954.94,573.84Z"/></clipPath><linearGradient id="_ÂÁ_Ï_ÌÌ_È_ËÂÌÚ_950-2" x1="952.51" y1="610.9" x2="927.99" y2="661.14" xlink:href="#_ÂÁ_Ï_ÌÌ_È_ËÂÌÚ_950"/><linearGradient id="_ÂÁ_Ï_ÌÌ_È_ËÂÌÚ_949-2" x1="874.15" y1="682.95" x2="948.25" y2="587.17" xlink:href="#_ÂÁ_Ï_ÌÌ_È_ËÂÌÚ_949"/><linearGradient id="_ÂÁ_Ï_ÌÌ_È_ËÂÌÚ_106-2" x1="849.9" y1="720.89" x2="991.37" y2="599.91" xlink:href="#_ÂÁ_Ï_ÌÌ_È_ËÂÌÚ_106"/><linearGradient id="_ÂÁ_Ï_ÌÌ_È_ËÂÌÚ_106-3" x1="908.96" y1="734.3" x2="1050.44" y2="613.32" xlink:href="#_ÂÁ_Ï_ÌÌ_È_ËÂÌÚ_106"/><linearGradient id="_ÂÁ_Ï_ÌÌ_È_ËÂÌÚ_106-4" x1="952.79" y1="693.84" x2="1048.39" y2="537.43" xlink:href="#_ÂÁ_Ï_ÌÌ_È_ËÂÌÚ_106"/><linearGradient id="_ÂÁ_Ï_ÌÌ_È_ËÂÌÚ_928" x1="928.84" y1="659.04" x2="943.66" y2="622.41" gradientUnits="userSpaceOnUse"><stop offset="0.01" stop-color="#556afb"/><stop offset="0.42" stop-color="#4340c1"/><stop offset="0.6" stop-color="#4340c1"/></linearGradient><linearGradient id="_ÂÁ_Ï_ÌÌ_È_ËÂÌÚ_926" x1="900.35" y1="675.58" x2="931.15" y2="599.47" gradientUnits="userSpaceOnUse"><stop offset="0.02" stop-color="#485ae4"/><stop offset="0.4" stop-color="#4340c1"/><stop offset="0.58" stop-color="#4340c1"/><stop offset="0.99" stop-color="#556afb"/></linearGradient><linearGradient id="_ÂÁ_Ï_ÌÌ_È_ËÂÌÚ_106-5" x1="876.96" y1="696.88" x2="1018.44" y2="575.9" xlink:href="#_ÂÁ_Ï_ÌÌ_È_ËÂÌÚ_106"/><clipPath id="clip-path-3"><path class="cls-1" d="M263.55,159.84l23.22,13.5a16.14,16.14,0,0,0-2.79-1.29l-23.22-13.49A16.88,16.88,0,0,1,263.55,159.84Z"/></clipPath><linearGradient id="_ÂÁ_Ï_ÌÌ_È_ËÂÌÚ_950-3" x1="261.11" y1="196.9" x2="236.6" y2="247.14" xlink:href="#_ÂÁ_Ï_ÌÌ_È_ËÂÌÚ_950"/><linearGradient id="_ÂÁ_Ï_ÌÌ_È_ËÂÌÚ_949-3" x1="182.76" y1="268.95" x2="256.86" y2="173.17" xlink:href="#_ÂÁ_Ï_ÌÌ_È_ËÂÌÚ_949"/><linearGradient id="_ÂÁ_Ï_ÌÌ_È_ËÂÌÚ_106-6" x1="158.51" y1="306.9" x2="299.98" y2="185.92" xlink:href="#_ÂÁ_Ï_ÌÌ_È_ËÂÌÚ_106"/><clipPath id="clip-path-4"><path class="cls-1" d="M165.57,100.93l23.22,13.49a16.88,16.88,0,0,0-2.79-1.28l-23.22-13.5A16.14,16.14,0,0,1,165.57,100.93Z"/></clipPath><linearGradient id="_ÂÁ_Ï_ÌÌ_È_ËÂÌÚ_950-4" x1="163.14" y1="137.99" x2="138.62" y2="188.23" xlink:href="#_ÂÁ_Ï_ÌÌ_È_ËÂÌÚ_950"/><linearGradient id="_ÂÁ_Ï_ÌÌ_È_ËÂÌÚ_949-4" x1="84.78" y1="210.04" x2="158.88" y2="114.26" xlink:href="#_ÂÁ_Ï_ÌÌ_È_ËÂÌÚ_949"/><linearGradient id="_ÂÁ_Ï_ÌÌ_È_ËÂÌÚ_106-7" x1="60.53" y1="247.98" x2="202.01" y2="127" xlink:href="#_ÂÁ_Ï_ÌÌ_È_ËÂÌÚ_106"/><linearGradient id="_ÂÁ_Ï_ÌÌ_È_ËÂÌÚ_106-8" x1="119.6" y1="261.39" x2="261.07" y2="140.41" xlink:href="#_ÂÁ_Ï_ÌÌ_È_ËÂÌÚ_106"/><linearGradient id="_ÂÁ_Ï_ÌÌ_È_ËÂÌÚ_106-9" x1="163.42" y1="220.93" x2="259.02" y2="64.52" xlink:href="#_ÂÁ_Ï_ÌÌ_È_ËÂÌÚ_106"/><linearGradient id="_ÂÁ_Ï_ÌÌ_È_ËÂÌÚ_928-2" x1="139.47" y1="186.13" x2="154.29" y2="149.5" xlink:href="#_ÂÁ_Ï_ÌÌ_È_ËÂÌÚ_928"/><linearGradient id="_ÂÁ_Ï_ÌÌ_È_ËÂÌÚ_926-2" x1="110.98" y1="202.67" x2="141.78" y2="126.56" xlink:href="#_ÂÁ_Ï_ÌÌ_È_ËÂÌÚ_926"/><linearGradient id="_ÂÁ_Ï_ÌÌ_È_ËÂÌÚ_106-10" x1="87.59" y1="223.97" x2="229.07" y2="102.99" xlink:href="#_ÂÁ_Ï_ÌÌ_È_ËÂÌÚ_106"/><linearGradient id="_ÂÁ_Ï_ÌÌ_È_ËÂÌÚ_872" x1="626.12" y1="35.47" x2="537" y2="145.84" gradientUnits="userSpaceOnUse"><stop offset="0" stop-color="#556afb"/><stop offset="0.58" stop-color="#4340c1"/></linearGradient><linearGradient id="_ÂÁ_Ï_ÌÌ_È_ËÂÌÚ_72" x1="439.15" y1="174.33" x2="700.34" y2="135.25" gradientUnits="userSpaceOnUse"><stop offset="0" stop-color="#ff5a72"/><stop offset="0.8" stop-color="#ffb06d"/></linearGradient><linearGradient id="_ÂÁ_Ï_ÌÌ_È_ËÂÌÚ_72-2" x1="733.47" y1="285.19" x2="796.54" y2="269.77" xlink:href="#_ÂÁ_Ï_ÌÌ_È_ËÂÌÚ_72"/><linearGradient id="_ÂÁ_Ï_ÌÌ_È_ËÂÌÚ_72-3" x1="520.57" y1="240.96" x2="720.05" y2="195.03" xlink:href="#_ÂÁ_Ï_ÌÌ_È_ËÂÌÚ_72"/><linearGradient id="_ÂÁ_Ï_ÌÌ_È_ËÂÌÚ_72-4" x1="660.61" y1="291.88" x2="705.16" y2="179.45" xlink:href="#_ÂÁ_Ï_ÌÌ_È_ËÂÌÚ_72"/><linearGradient id="_ÂÁ_Ï_ÌÌ_È_ËÂÌÚ_873" x1="368.75" y1="400.38" x2="479.12" y2="402.3" gradientUnits="userSpaceOnUse"><stop offset="0.04" stop-color="#7384ff"/><stop offset="0.23" stop-color="#4340c1"/><stop offset="1" stop-color="#5559d8"/></linearGradient><linearGradient id="_ÂÁ_Ï_ÌÌ_È_ËÂÌÚ_872-2" x1="467.62" y1="335.97" x2="583.76" y2="438.41" xlink:href="#_ÂÁ_Ï_ÌÌ_È_ËÂÌÚ_872"/><linearGradient id="_ÂÁ_Ï_ÌÌ_È_ËÂÌÚ_872-3" x1="619.68" y1="208.18" x2="368.09" y2="291.82" xlink:href="#_ÂÁ_Ï_ÌÌ_È_ËÂÌÚ_872"/><linearGradient id="_ÂÁ_Ï_ÌÌ_È_ËÂÌÚ_887" x1="612.84" y1="456.45" x2="769.05" y2="412.74" gradientUnits="userSpaceOnUse"><stop offset="0.04" stop-color="#7384ff"/><stop offset="0.14" stop-color="#6069e7"/><stop offset="0.2" stop-color="#565bda"/><stop offset="0.3" stop-color="#4340c1"/><stop offset="1" stop-color="#6773f0"/></linearGradient><linearGradient id="_ÂÁ_Ï_ÌÌ_È_ËÂÌÚ_875" x1="776.01" y1="311.66" x2="587.33" y2="443.78" gradientUnits="userSpaceOnUse"><stop offset="0.13" stop-color="#556afb"/><stop offset="0.68" stop-color="#4340c1"/></linearGradient><linearGradient id="_ÂÁ_Ï_ÌÌ_È_ËÂÌÚ_872-4" x1="747.96" y1="305.87" x2="471.7" y2="176.99" xlink:href="#_ÂÁ_Ï_ÌÌ_È_ËÂÌÚ_872"/><linearGradient id="_ÂÁ_Ï_ÌÌ_È_ËÂÌÚ_72-5" x1="660.77" y1="420.84" x2="583.64" y2="345.26" xlink:href="#_ÂÁ_Ï_ÌÌ_È_ËÂÌÚ_72"/><linearGradient id="_ÂÁ_Ï_ÌÌ_È_ËÂÌÚ_72-6" x1="439.01" y1="615.97" x2="683.84" y2="358.9" xlink:href="#_ÂÁ_Ï_ÌÌ_È_ËÂÌÚ_72"/><linearGradient id="_ÂÁ_Ï_ÌÌ_È_ËÂÌÚ_872-5" x1="649.28" y1="112.49" x2="485.18" y2="396.26" xlink:href="#_ÂÁ_Ï_ÌÌ_È_ËÂÌÚ_872"/><linearGradient id="_ÂÁ_Ï_ÌÌ_È_ËÂÌÚ_872-6" x1="654.71" y1="5.43" x2="556.75" y2="126.74" xlink:href="#_ÂÁ_Ï_ÌÌ_È_ËÂÌÚ_872"/><linearGradient id="_ÂÁ_Ï_ÌÌ_È_ËÂÌÚ_61" x1="140.11" y1="553.57" x2="140.11" y2="720.5" gradientUnits="userSpaceOnUse"><stop offset="0.04" stop-color="#7384ff"/><stop offset="0.7" stop-color="#4340c1"/><stop offset="1" stop-color="#5559d8"/></linearGradient><linearGradient id="_ÂÁ_Ï_ÌÌ_È_ËÂÌÚ_64" x1="49.55" y1="646.53" x2="181.75" y2="646.53" gradientUnits="userSpaceOnUse"><stop offset="0.14" stop-color="#5559d8"/><stop offset="0.47" stop-color="#4340c1"/><stop offset="0.96" stop-color="#7384ff"/></linearGradient><linearGradient id="_ÂÁ_Ï_ÌÌ_È_ËÂÌÚ_61-2" x1="1035.5" y1="151.05" x2="1035.5" y2="317.98" xlink:href="#_ÂÁ_Ï_ÌÌ_È_ËÂÌÚ_61"/><linearGradient id="_ÂÁ_Ï_ÌÌ_È_ËÂÌÚ_64-2" x1="944.94" y1="244.01" x2="1077.15" y2="244.01" xlink:href="#_ÂÁ_Ï_ÌÌ_È_ËÂÌÚ_64"/></defs><title>Ativo 2</title><g class="cls-2"><g id="Camada_2" data-name="Camada 2"><g id="_ÎÓÈ_1" data-name="—ÎÓÈ_1"><ellipse class="cls-3" cx="578.87" cy="445.99" rx="575.72" ry="333.47" transform="translate(-1.26 1.64) rotate(-0.16)"/><g class="cls-2"><g class="cls-4"><g class="cls-2"><path class="cls-5" d="M1073.35,645l-23.22-13.49q.45.15.87.33l23.22,13.5c-.28-.12-.57-.23-.87-.34"/><path class="cls-6" d="M1074.22,645.3,1051,631.8a16.33,16.33,0,0,1,1.73.85L1076,646.14a17.44,17.44,0,0,0-1.74-.84"/><path class="cls-7" d="M1076,646.14l-23.23-13.49.19.1,23.22,13.5-.18-.11"/></g></g></g><path class="cls-8" d="M1058.59,684.45c0-5.41-1.49-9-4.41-10.67L1031,660.29q4.4,2.55,4.42,10.67l0,10.76c0,.83,0,1.65-.07,2.45,0,.27,0,.53-.07.79,0,.53-.08,1.07-.15,1.59,0,.24-.07.48-.1.72-.09.61-.19,1.23-.31,1.83-.07.36-.15.71-.23,1.07s-.13.55-.21.82c-.13.52-.28,1-.44,1.55a2.58,2.58,0,0,0-.08.26q-.3.9-.66,1.77l-.13.34c-.24.56-.48,1.11-.75,1.66,0,.08-.08.16-.13.24-.28.56-.58,1.12-.89,1.66l-.09.15c-.31.51-.63,1-1,1.51l-.15.23c-.35.5-.72,1-1.1,1.47l-.42.5c-.25.32-.52.62-.79.93s-.65.7-1,1l-.65.66c-.31.3-.65.6-1,.9s-.48.44-.74.65-.73.6-1.11.89l-.74.59c-.44.32-.89.63-1.35.94-.22.15-.43.31-.66.46-.69.45-1.41.89-2.15,1.32-.59.34-1.16.64-1.72.92l-.54.24-1,.45c-.61.24-1.21.45-1.79.62l-.21.07-.5.1c-.37.09-.74.17-1.1.23l-.33,0a10.36,10.36,0,0,1-1.1.08h-.4c-.35,0-.7,0-1-.07l-.28,0a8.31,8.31,0,0,1-1.22-.28l-.27-.1a9.92,9.92,0,0,1-1.13-.46l-.44-.24,23.23,13.49.1.06.33.18c.2.1.4.2.61.28l.52.19.27.09.13.05a8.3,8.3,0,0,0,1,.22l.13,0,.28,0c.2,0,.4.06.6.07h1.1a8.28,8.28,0,0,0,.84-.09l.34,0h.07c.34-.05.69-.13,1-.21.16,0,.32-.06.49-.11h0l.18-.06a17.22,17.22,0,0,0,1.79-.61,2.09,2.09,0,0,1,.23-.08c.27-.11.54-.25.81-.37l.54-.25c.56-.28,1.14-.58,1.72-.92.75-.42,1.46-.87,2.15-1.32.23-.15.44-.31.66-.46.46-.31.91-.62,1.35-.94l.74-.58c.38-.3.76-.59,1.12-.89l.73-.66c.33-.3.67-.59,1-.9l.22-.2c.15-.15.28-.31.43-.46q.51-.51,1-1c.09-.1.19-.19.27-.29s.35-.42.53-.63.28-.33.41-.5l.17-.21c.29-.38.57-.76.85-1.15l.08-.12.15-.22.48-.72c.17-.26.33-.53.49-.8l.09-.14,0-.08c.2-.33.38-.66.56-1l.3-.58.12-.25.1-.2c.17-.35.33-.7.49-1.06,0-.13.1-.27.16-.4l.14-.33c0-.14.11-.28.16-.41.17-.43.32-.86.47-1.3a.64.64,0,0,0,0-.07c0-.08,0-.17.08-.25l.36-1.18c0-.12,0-.25.09-.37s.13-.55.2-.83.12-.45.16-.68,0-.26.07-.39c.12-.6.22-1.21.31-1.83,0-.17.07-.34.09-.52s0-.13,0-.19c.06-.52.1-1,.14-1.59,0-.26.06-.52.07-.79,0-.81.07-1.63.07-2.46Z"/><path class="cls-9" d="M1050.13,631.47c-.39-.14-.78-.27-1.17-.38l-.17,0a18.56,18.56,0,0,0-2-.46l-.08,0a2.48,2.48,0,0,0-.27,0c-.61-.1-1.23-.17-1.86-.22l-.32,0H1044c-.8,0-1.61,0-2.44,0h-.07c-.54,0-1.1.07-1.66.12l-.3,0c-.45.05-.89.1-1.34.17l-.16,0c-.4.06-.81.14-1.22.22l-.82.16c-.45.1-.92.22-1.38.34l-.66.16h0c-.91.25-1.84.54-2.78.86l-.72.25q-1.29.45-2.61,1l-.27.1-.1,0c-.44.18-.89.38-1.34.58l-1,.43-1.45.69-.92.45-1.64.85-.8.41c-.82.45-1.65.91-2.49,1.4-1.73,1-3.41,2-5,3.12-.55.36-1.06.75-1.59,1.11-1.09.75-2.17,1.5-3.21,2.28-.62.46-1.21.95-1.8,1.42-.93.73-1.86,1.47-2.75,2.23-.62.52-1.21,1.07-1.81,1.61-.85.75-1.68,1.52-2.49,2.3l-.75.69c-.72.71-1.41,1.44-2.11,2.17l-.24.25c-.82.87-1.64,1.77-2.43,2.68-.2.24-.39.49-.6.73-.53.63-1.05,1.27-1.57,1.91-.38.48-.79.93-1.16,1.42l-.74,1c-.37.49-.74,1-1.1,1.49s-.59.78-.87,1.18c-.6.85-1.19,1.72-1.76,2.6l-.59.91-.31.5c-.45.72-.9,1.45-1.33,2.18-.1.17-.22.34-.32.52l-.14.26c-.48.83-1,1.66-1.39,2.49l-.1.17v0c-.46.86-.89,1.73-1.32,2.6l-.09.18-.3.66c-.27.58-.54,1.17-.8,1.75l-.16.36c-.09.2-.17.41-.26.61-.23.56-.46,1.11-.68,1.67l-.21.52c-.06.15-.11.31-.17.46-.23.63-.46,1.25-.67,1.88l-.22.6a2,2,0,0,1-.07.23c-.31.95-.6,1.91-.87,2.86l0,.12-.08.32c-.27,1-.51,2-.73,3,0,.14-.07.28-.1.42s-.05.24-.07.36c-.09.42-.17.84-.25,1.26s-.14.77-.2,1.15-.13.84-.19,1.26-.09.56-.13.85c0,.07,0,.14,0,.21-.14,1.13-.25,2.25-.33,3.37,0,.24,0,.47,0,.7-.06,1.16-.1,2.32-.1,3.49l0,10.47q0,12.89,5.47,19.28a15.91,15.91,0,0,0,4.22,3.53l23.22,13.5q-9.64-5.62-9.69-22.81l0-10.48c0-1.16,0-2.32.11-3.48,0-.23,0-.47,0-.7.07-1.13.18-2.25.32-3.37l.15-1.06c.06-.42.12-.84.19-1.26s.14-.77.21-1.15.15-.84.24-1.26c0-.26.11-.52.17-.79.22-1,.46-2,.74-3,0-.14.07-.29.11-.43.27-1,.56-1.91.88-2.87l.28-.82c.22-.63.44-1.26.68-1.88.12-.33.24-.66.37-1,.22-.55.45-1.11.69-1.66.13-.33.27-.65.41-1,.26-.59.53-1.17.8-1.76.14-.28.26-.56.4-.83q.63-1.3,1.32-2.61l.09-.17c.45-.84.91-1.67,1.4-2.5.15-.27.31-.53.46-.79.43-.72.88-1.45,1.34-2.18.29-.47.58-.94.89-1.4.84-1.3,1.73-2.54,2.63-3.78l1.1-1.5c.62-.82,1.26-1.62,1.9-2.41s1-1.29,1.57-1.91c1-1.16,2-2.31,3-3.42a2.83,2.83,0,0,0,.24-.25c.93-1,1.89-1.92,2.86-2.85.81-.79,1.64-1.55,2.48-2.3.61-.54,1.2-1.09,1.82-1.62.89-.76,1.82-1.49,2.74-2.22.6-.48,1.19-1,1.81-1.42,1-.79,2.12-1.53,3.2-2.28.54-.37,1-.75,1.6-1.11,1.64-1.08,3.32-2.13,5-3.13.84-.48,1.67-.95,2.49-1.39l.83-.43,1.61-.84,1-.46,1.42-.68,1-.43c.44-.2.88-.4,1.31-.58l.38-.15c.88-.36,1.74-.68,2.6-1l.72-.26c.94-.31,1.87-.61,2.78-.85l.71-.18c.46-.12.93-.24,1.38-.33l.83-.16,1.21-.23c.51-.07,1-.14,1.5-.19l.3,0c.59-.06,1.16-.1,1.73-.12a22,22,0,0,1,2.44,0l.59,0q.95.06,1.86.21l.35.05c.68.12,1.35.28,2,.46.45.13.9.26,1.33.42Z"/><path class="cls-10" d="M1073.35,645q12.35,4.41,12.4,24.66l0,10.19q0,18.95-12,37.63a93,93,0,0,1-32.19,30.26q-20.25,11.68-32.52,7c-8.19-3.1-12.28-11.14-12.32-24.05l0-10.48q-.06-19.09,12.29-37.92a93.7,93.7,0,0,1,32-30.2Q1061,640.53,1073.35,645Zm-14.73,50.25,0-10.76q0-8.49-4.82-10.89c-3.2-1.6-7.42-.91-12.67,2.13a35,35,0,0,0-12.65,12.48,31.94,31.94,0,0,0-4.74,16.85l0,10.61c0,5.18,1.73,8.65,5.1,10.37s7.61,1.14,12.67-1.79q17.17-9.9,17.11-29"/><path class="cls-11" d="M1083.73,680.74a58.78,58.78,0,0,1-.69,10.08,61.91,61.91,0,0,1-2.47,9.82,76.89,76.89,0,0,1-9.17,18,85.86,85.86,0,0,1-13.34,15.21,92.16,92.16,0,0,1-7.91,6.3c-2.77,1.92-5.64,3.7-8.58,5.33a98.4,98.4,0,0,0,8.34-5.65,91.72,91.72,0,0,0,7.74-6.44,88.18,88.18,0,0,0,13.08-15.2,78.73,78.73,0,0,0,9.26-17.78,61.39,61.39,0,0,0,2.66-9.68A57.85,57.85,0,0,0,1083.73,680.74Z"/><path class="cls-11" d="M1047.64,648.58a34.3,34.3,0,0,1,4-2.06,35.18,35.18,0,0,1,4.23-1.57,28.68,28.68,0,0,1,4.41-1,21.88,21.88,0,0,1,4.5-.22c-1.48.24-2.94.49-4.39.83s-2.88.7-4.29,1.14-2.83.9-4.24,1.37Z"/><path class="cls-11" d="M1023.74,715.63c.18,2.88.78,5.87,2.64,8a8.59,8.59,0,0,0,3.4,2.37,9,9,0,0,0,4.12.5,20.11,20.11,0,0,0,8-2.88,46.39,46.39,0,0,0,7.13-5,34.37,34.37,0,0,1-6.81,5.49,19.82,19.82,0,0,1-8.24,3.15,9.18,9.18,0,0,1-8.07-3.28,10.57,10.57,0,0,1-1.85-4A17.45,17.45,0,0,1,1023.74,715.63Z"/><path class="cls-11" d="M1058.6,687a39.7,39.7,0,0,0-.76-7,8.84,8.84,0,0,0-3.55-5.64,7.5,7.5,0,0,0-3.14-1.18,11.65,11.65,0,0,0-3.43.15,26.55,26.55,0,0,0-6.62,2.39,20.34,20.34,0,0,1,6.49-3,10.64,10.64,0,0,1,3.65-.26,8.17,8.17,0,0,1,3.49,1.23,7.69,7.69,0,0,1,2.49,2.74,10.64,10.64,0,0,1,1.22,3.44,20.67,20.67,0,0,1,.33,3.59C1058.74,684.63,1058.68,685.8,1058.6,687Z"/><g class="cls-2"><g class="cls-12"><g class="cls-2"><path class="cls-5" d="M975.37,586.05l-23.22-13.5c.3.11.59.22.87.34l23.22,13.49q-.42-.18-.87-.33"/><path class="cls-6" d="M976.24,586.38,953,572.89a17.44,17.44,0,0,1,1.74.84L978,587.23a16.49,16.49,0,0,0-1.74-.85"/><path class="cls-7" d="M978,587.23l-23.22-13.5.18.11,23.22,13.49-.18-.1"/></g></g></g><path class="cls-13" d="M960.61,625.54q0-8.12-4.41-10.67L933,601.37c2.92,1.7,4.4,5.26,4.41,10.67l0,10.76c0,.83,0,1.65-.07,2.46,0,.26,0,.52-.06.78,0,.54-.09,1.07-.15,1.6,0,.24-.08.47-.11.71-.09.62-.19,1.23-.31,1.83-.07.36-.15.72-.23,1.07s-.13.56-.2.83c-.14.52-.29,1-.45,1.55,0,.08-.05.17-.08.26-.2.6-.42,1.19-.65,1.77L935,636c-.23.57-.48,1.12-.75,1.67l-.12.24c-.29.56-.58,1.11-.9,1.66l-.09.14c-.31.52-.63,1-1,1.52l-.15.22c-.35.5-.72,1-1.1,1.48-.13.17-.28.33-.41.5s-.53.62-.8.92-.65.71-1,1-.42.45-.65.66-.65.6-1,.9l-.73.66c-.36.3-.74.6-1.12.89l-.74.58c-.44.32-.89.64-1.35.95l-.66.45c-.69.46-1.4.9-2.15,1.33-.58.33-1.16.64-1.72.91l-.54.25-1,.45a18.05,18.05,0,0,1-1.79.61l-.21.07c-.17,0-.33.07-.49.11-.38.08-.75.17-1.1.22l-.33,0c-.38,0-.75.07-1.11.08h-.4a8.93,8.93,0,0,1-1-.07l-.28,0a8.33,8.33,0,0,1-1.22-.29l-.27-.09a8.44,8.44,0,0,1-1.13-.47c-.15-.07-.29-.15-.43-.23l23.22,13.49.1.06.33.18.61.28c.17.07.35.12.52.18l.27.1.14.05c.31.09.63.16,1,.22h.13l.28,0,.6.07h1.1l.85-.09.33,0h.08c.33,0,.68-.14,1-.22l.49-.1h0l.19-.06c.58-.17,1.17-.38,1.78-.62l.23-.08c.27-.11.54-.24.82-.37l.53-.24c.57-.28,1.14-.58,1.73-.92.74-.43,1.45-.87,2.15-1.32.22-.15.43-.31.66-.46.45-.31.91-.62,1.34-.94l.74-.59c.38-.29.76-.59,1.12-.89s.49-.44.73-.65.67-.6,1-.9l.22-.2c.15-.15.29-.31.43-.46q.51-.52,1-1l.28-.29c.18-.21.34-.43.52-.64s.28-.33.41-.5.12-.13.17-.2c.29-.38.58-.76.85-1.15l.08-.12.15-.23c.16-.24.33-.47.48-.71l.49-.8.09-.15.05-.08c.19-.32.37-.66.55-1l.3-.59.12-.24.1-.2c.17-.35.33-.71.49-1.06.06-.13.11-.27.16-.4s.09-.23.14-.34l.17-.41c.16-.42.31-.86.46-1.29,0,0,0-.05,0-.07s0-.17.08-.25c.12-.4.25-.79.36-1.19l.09-.37c.07-.27.13-.55.2-.82s.12-.46.17-.69l.06-.38c.12-.6.22-1.21.31-1.83,0-.18.07-.35.09-.53s0-.13,0-.19c.06-.52.1-1,.15-1.58,0-.27,0-.53.06-.8,0-.8.08-1.62.07-2.45Z"/><path class="cls-14" d="M952.15,572.55c-.38-.14-.77-.26-1.17-.38l-.16,0c-.65-.18-1.32-.34-2-.46h-.08l-.27,0c-.61-.09-1.23-.17-1.86-.21l-.32,0H946a22,22,0,0,0-2.44,0h-.06c-.55,0-1.11.06-1.67.12l-.3,0c-.44,0-.89.1-1.34.17l-.16,0c-.4.06-.81.14-1.21.22l-.83.16-1.38.33-.66.16-.05,0c-.91.24-1.84.54-2.78.86l-.72.25c-.86.3-1.72.63-2.61,1l-.27.1-.1,0-1.33.59-1,.42c-.48.22-1,.46-1.45.7l-.92.44-1.64.85-.8.42c-.82.44-1.65.91-2.49,1.39-1.73,1-3.41,2.05-5.05,3.13-.54.36-1.06.74-1.59,1.11-1.09.74-2.17,1.49-3.21,2.28-.61.46-1.2.94-1.8,1.41-.93.74-1.85,1.47-2.75,2.24-.62.52-1.21,1.06-1.81,1.6-.84.76-1.68,1.52-2.49,2.31-.24.23-.51.45-.75.69q-1.07,1.07-2.1,2.16l-.25.25c-.82.88-1.63,1.77-2.43,2.68-.2.24-.39.5-.6.74-.53.62-1,1.26-1.56,1.91-.39.47-.79.93-1.17,1.42-.25.32-.49.66-.74,1l-1.1,1.5c-.28.39-.58.77-.87,1.17-.6.86-1.18,1.73-1.76,2.61-.2.3-.4.6-.59.91s-.2.33-.3.49c-.46.73-.91,1.46-1.34,2.18-.1.18-.22.35-.32.52l-.14.27c-.48.82-1,1.65-1.39,2.48l-.09.17v0q-.69,1.3-1.32,2.61l-.1.18c-.1.22-.19.44-.3.66-.27.58-.54,1.16-.8,1.75-.05.12-.11.23-.16.35s-.17.41-.25.62c-.24.55-.47,1.11-.69,1.66-.06.18-.14.35-.21.53s-.11.3-.16.46c-.24.62-.46,1.25-.68,1.88l-.22.6-.06.22c-.32,1-.61,1.91-.88,2.87,0,0,0,.08,0,.12s0,.21-.07.31c-.28,1-.52,2-.74,3,0,.14-.07.28-.1.42s-.05.24-.07.36q-.13.63-.24,1.26c-.07.38-.15.76-.21,1.15s-.13.84-.19,1.26-.09.56-.13.84c0,.07,0,.15,0,.22-.14,1.12-.25,2.25-.32,3.37,0,.23,0,.47,0,.7-.07,1.16-.11,2.32-.11,3.48l0,10.48c0,8.58,1.84,15,5.47,19.27a16.3,16.3,0,0,0,4.22,3.54l23.23,13.49q-9.66-5.61-9.7-22.81l0-10.47c0-1.17,0-2.33.11-3.49,0-.23,0-.46,0-.7.07-1.12.18-2.24.32-3.37l.15-1.06c.06-.42.12-.84.19-1.26s.14-.76.21-1.15.15-.84.24-1.26c0-.26.12-.52.17-.78.22-1,.47-2,.74-3,0-.15.07-.29.11-.44.27-.95.56-1.91.88-2.86.09-.28.19-.55.28-.83.22-.63.44-1.25.68-1.88.12-.33.25-.65.38-1,.21-.56.44-1.11.68-1.67.13-.32.27-.64.41-1,.26-.58.53-1.17.81-1.75.13-.28.25-.56.39-.84.42-.87.86-1.74,1.32-2.6l.09-.18c.45-.83.92-1.67,1.4-2.5l.46-.78c.43-.73.88-1.46,1.34-2.18.3-.47.58-.94.89-1.41.85-1.29,1.73-2.54,2.63-3.78.37-.5.73-1,1.11-1.49.62-.82,1.25-1.62,1.9-2.42.51-.64,1-1.28,1.57-1.91,1-1.16,2-2.31,3-3.41l.25-.25c.92-1,1.89-1.92,2.85-2.86.81-.78,1.65-1.54,2.49-2.3.6-.54,1.2-1.08,1.81-1.61.9-.76,1.82-1.5,2.75-2.23.6-.47,1.19-1,1.8-1.42,1-.78,2.12-1.53,3.21-2.27.53-.37,1.05-.76,1.59-1.12,1.64-1.08,3.32-2.13,5-3.12.84-.49,1.67-.95,2.5-1.4l.82-.43c.54-.28,1.08-.57,1.61-.83l.95-.46c.48-.23,1-.47,1.42-.68s.67-.29,1-.44l1.31-.57.38-.15c.88-.36,1.75-.69,2.6-1l.72-.25c.94-.32,1.87-.61,2.78-.86l.71-.17c.46-.12.93-.24,1.39-.34l.82-.16c.41-.07.82-.16,1.22-.22s1-.14,1.49-.2l.3,0c.59-.06,1.17-.1,1.73-.12.84,0,1.65,0,2.44,0l.59,0c.63.05,1.25.12,1.86.22l.36,0c.68.12,1.34.28,2,.46.45.13.9.26,1.33.42Z"/><path class="cls-15" d="M975.37,586.05q12.35,4.4,12.4,24.66l0,10.19q0,18.95-12,37.62a93.14,93.14,0,0,1-32.19,30.27q-20.25,11.69-32.51,7c-8.2-3.1-12.29-11.15-12.33-24.06l0-10.47q0-19.1,12.29-37.93a93.77,93.77,0,0,1,32-30.19Q963,581.62,975.37,586.05ZM960.64,636.3l0-10.76q0-8.49-4.82-10.89c-3.2-1.61-7.41-.91-12.67,2.13a34.91,34.91,0,0,0-12.64,12.48,31.86,31.86,0,0,0-4.75,16.84l0,10.62c0,5.18,1.73,8.65,5.1,10.37s7.61,1.14,12.68-1.79q17.16-9.91,17.1-29"/><path class="cls-11" d="M985.75,621.83a57.61,57.61,0,0,1-.69,10.07,60.59,60.59,0,0,1-2.47,9.82,76.32,76.32,0,0,1-9.17,18A85.16,85.16,0,0,1,960.08,675a90.26,90.26,0,0,1-7.91,6.3,96.4,96.4,0,0,1-8.58,5.33,96.25,96.25,0,0,0,8.35-5.65,91.46,91.46,0,0,0,7.73-6.43,88.62,88.62,0,0,0,13.08-15.21A78.45,78.45,0,0,0,982,641.52a62.33,62.33,0,0,0,2.67-9.69A57.83,57.83,0,0,0,985.75,621.83Z"/><path class="cls-11" d="M916.63,615.63a83.81,83.81,0,0,1,10.17-11.14,93,93,0,0,1,12-9.21,88.41,88.41,0,0,1,13.37-7.06,40.67,40.67,0,0,1,14.65-3.38,36.85,36.85,0,0,0-7.37,1.38,52.87,52.87,0,0,0-7,2.57A94.25,94.25,0,0,0,939.22,596a99.11,99.11,0,0,0-12,9A107.76,107.76,0,0,0,916.63,615.63Z"/><path class="cls-11" d="M925.76,656.72c.18,2.87.79,5.86,2.64,8a8.69,8.69,0,0,0,3.4,2.37,9.16,9.16,0,0,0,4.12.5,20.07,20.07,0,0,0,8-2.89,45.85,45.85,0,0,0,7.13-5,33.7,33.7,0,0,1-6.81,5.48,19.78,19.78,0,0,1-8.24,3.16,9.18,9.18,0,0,1-8.06-3.28,10.48,10.48,0,0,1-1.86-4A17.4,17.4,0,0,1,925.76,656.72Z"/><path class="cls-11" d="M960.62,628.08a39.7,39.7,0,0,0-.76-7,8.77,8.77,0,0,0-3.55-5.64,7.45,7.45,0,0,0-3.14-1.18,11.64,11.64,0,0,0-3.43.14,26.58,26.58,0,0,0-6.62,2.4,20.34,20.34,0,0,1,6.49-3,10.65,10.65,0,0,1,3.65-.27,8.26,8.26,0,0,1,3.49,1.23,7.9,7.9,0,0,1,2.5,2.74,11.06,11.06,0,0,1,1.22,3.44,20.74,20.74,0,0,1,.32,3.59C960.76,625.71,960.7,626.89,960.62,628.08Z"/><polygon class="cls-16" points="1027.84 549.14 1051.07 562.64 951.51 781.42 931.65 782.11 1027.84 549.14"/><polygon class="cls-17" points="931.65 782.11 908.43 768.62 1007.99 549.83 1027.84 549.14 931.65 782.11"/><path class="cls-18" d="M960,639.82c.06-.45.09-.9.13-1.35,0-.24,0-.47.07-.7,0-.72.07-1.43.06-2.15l0-10.48c0-5.56-1.53-9.2-4.53-10.94l-23.22-13.5c3,1.74,4.52,5.38,4.53,10.95l0,10.47c0,.72,0,1.44-.06,2.15,0,.24-.05.47-.07.7,0,.47-.08.95-.14,1.42-.1.78-.24,1.56-.4,2.34-.12.57-.26,1.13-.41,1.69a2.86,2.86,0,0,1-.07.28c-.17.63-.37,1.26-.59,1.88,0,.15-.1.3-.16.45-.19.52-.39,1.05-.61,1.57l-.11.27c-.25.59-.53,1.18-.82,1.76-.06.14-.13.26-.19.39-.31.6-.63,1.2-1,1.79s-.7,1.14-1.07,1.7l-.29.43c-.33.49-.67,1-1,1.43l-.17.24c-.42.54-.86,1.08-1.31,1.59s-1.07,1.18-1.63,1.74c-.29.29-.6.56-.91.84s-.45.44-.69.65-.69.56-1,.84-.43.37-.66.54c-.4.3-.82.59-1.23.88-.2.13-.38.27-.57.4-.62.41-1.25.8-1.9,1.18s-1.25.69-1.85,1l-.59.27c-.4.19-.81.37-1.2.53l-.35.13c-.43.17-.86.32-1.27.45l-.35.1c-.31.09-.61.15-.91.22l-.73.15a10.26,10.26,0,0,1-1.41.15h-.12a7.94,7.94,0,0,1-1.2,0l-.33,0a8.5,8.5,0,0,1-1.12-.21l-.08,0a7.51,7.51,0,0,1-1.25-.48l-.48-.25,23.22,13.49.08,0,.4.21.38.17a7.55,7.55,0,0,0,.84.29h0l.08,0c.26.07.51.13.77.18l.36,0,.32,0,.28,0c.3,0,.61,0,.92,0h.15a11.29,11.29,0,0,0,1.25-.13l.13,0c.23,0,.48-.11.73-.16l.72-.15.19-.06.35-.11c.41-.13.84-.27,1.28-.44l.34-.13.19-.08c.33-.13.68-.3,1-.46l.58-.27c.6-.3,1.22-.62,1.85-1s1.28-.76,1.9-1.17c.2-.14.38-.28.58-.41.41-.29.82-.57,1.22-.88.23-.17.45-.36.68-.54s.69-.55,1-.84.46-.42.69-.64.59-.52.87-.8l0-.05c.56-.55,1.1-1.13,1.63-1.73l.05-.06c.42-.48.82-1,1.21-1.47l.05-.07.18-.24c.25-.34.51-.67.75-1,.1-.13.18-.27.27-.4s.2-.29.29-.44l.3-.44c.26-.41.52-.83.77-1.26h0c.24-.43.48-.85.71-1.28.09-.16.16-.33.25-.49l.19-.39c.07-.12.13-.25.2-.38q.3-.63.57-1.26a.61.61,0,0,0,0-.12c0-.09.08-.18.11-.27.13-.31.26-.61.38-.92l.24-.66c0-.15.1-.3.16-.44s.07-.2.1-.3c.17-.51.33-1,.48-1.56v0a2.68,2.68,0,0,0,.07-.27c.14-.53.28-1,.39-1.58,0,0,0-.08,0-.12.16-.78.3-1.56.4-2.35C960,639.86,960,639.84,960,639.82Z"/><path class="cls-19" d="M954.43,573.35l-.19-.1-.24-.12c-.43-.23-.86-.44-1.31-.64l-.24-.12-.62-.24c-.46-.18-.93-.33-1.41-.47l-.07,0c-.64-.18-1.3-.33-2-.45l-.17,0-.35,0c-.56-.09-1.14-.16-1.72-.2-.12,0-.23,0-.35,0h-.22a21.27,21.27,0,0,0-2.4,0H943l-1.18.09-.38,0c-.56,0-1.14.12-1.72.21l-.08,0c-.46.07-.93.16-1.4.25-.21,0-.42.08-.64.12q-1,.23-2.1.51h0c-.9.24-1.82.53-2.75.84l-.74.26q-1.32.46-2.67,1l-.2.07-.06,0-1.31.57c-.34.15-.67.28-1,.44s-1,.45-1.42.68-.63.29-1,.46l-1.64.85-.79.41c-.82.45-1.66.91-2.5,1.4-1.73,1-3.41,2-5.06,3.13-.54.36-1.06.74-1.59,1.11-1.08.74-2.16,1.49-3.2,2.27-.62.46-1.2,1-1.81,1.43-.92.72-1.84,1.45-2.73,2.21-.62.53-1.21,1.08-1.81,1.62-.84.75-1.67,1.5-2.47,2.28l-.67.62c-.83.83-1.65,1.67-2.46,2.53a.86.86,0,0,1-.13.14c-.73.78-1.44,1.58-2.15,2.38-.24.29-.47.6-.72.89-.52.61-1,1.23-1.52,1.85-.34.42-.7.82-1,1.25s-.61.83-.92,1.25-.71.95-1.06,1.44c-.22.3-.45.6-.67.91-.7,1-1.38,2-2.05,3l-.25.4c-.1.15-.19.31-.28.46-.49.78-1,1.55-1.43,2.33-.09.15-.19.3-.28.46s-.15.28-.24.43c-.38.67-.75,1.34-1.12,2l-.31.55-.09.19c-.47.89-.92,1.77-1.35,2.66l0,0a2.39,2.39,0,0,1-.13.28q-.54,1.15-1,2.31a2.56,2.56,0,0,1-.11.24c-.09.2-.17.41-.26.62-.25.6-.5,1.2-.73,1.79l-.18.44-.18.51c-.24.63-.47,1.27-.68,1.9-.07.19-.15.38-.21.58s0,.18-.09.28c-.31,1-.61,1.93-.88,2.89a.25.25,0,0,0,0,.07c0,.07,0,.14,0,.21-.29,1-.54,2.09-.77,3.13,0,.14-.07.28-.1.42s-.05.26-.08.4c-.09.42-.17.85-.25,1.27s-.14.76-.2,1.13-.13.86-.19,1.29c0,.27-.09.54-.12.81l0,.22c-.14,1.12-.24,2.25-.32,3.37,0,.23,0,.46,0,.69-.07,1.16-.11,2.32-.11,3.48l0,10.05a40.7,40.7,0,0,0,1.88,13,23.63,23.63,0,0,0,1.21,2.89,19.86,19.86,0,0,0,1.51,2.51,17.28,17.28,0,0,0,1.81,2.15,16.22,16.22,0,0,0,2.11,1.77q.57.39,1.17.75L908.19,694q-9.63-5.6-9.69-23.11l0-10.05c0-1.16,0-2.32.1-3.48,0-.23,0-.46,0-.69q.12-1.68.33-3.36c0-.35.09-.69.14-1s.12-.85.19-1.28l.21-1.14c.07-.42.15-.85.24-1.27l.18-.81c.23-1.05.48-2.09.77-3.13,0-.1.05-.19.07-.28.27-1,.57-1.93.89-2.9.09-.28.19-.57.29-.86.22-.63.44-1.26.68-1.9l.36-.94c.24-.6.48-1.2.74-1.8l.36-.86c.34-.77.69-1.53,1.06-2.3l.14-.32c.43-.88.88-1.76,1.35-2.65.13-.25.27-.5.41-.75.36-.67.73-1.34,1.12-2l.51-.88c.46-.78.94-1.56,1.43-2.33.18-.29.35-.58.54-.86.87-1.35,1.78-2.66,2.71-4,.35-.48.7-1,1.06-1.43.64-.85,1.29-1.68,2-2.51.5-.62,1-1.24,1.52-1.85.94-1.11,1.89-2.2,2.87-3.26l.14-.15c1-1.08,2.06-2.12,3.12-3.15.81-.77,1.63-1.52,2.47-2.27.6-.55,1.19-1.09,1.81-1.62.89-.76,1.81-1.49,2.73-2.22.61-.47,1.19-1,1.81-1.42,1-.78,2.12-1.53,3.2-2.27.53-.37,1.05-.76,1.6-1.12,1.64-1.08,3.32-2.13,5-3.13.84-.48,1.68-1,2.5-1.39l.79-.42,1.64-.85.95-.45,1.43-.69,1-.43c.44-.19.88-.4,1.32-.58l.26-.1c.91-.37,1.79-.7,2.67-1l.75-.26c.93-.31,1.84-.61,2.74-.85h0q1.07-.29,2.1-.51l.64-.12c.47-.09.94-.19,1.4-.26s1.21-.17,1.81-.23l.37,0,1.32-.09c.82,0,1.62,0,2.4,0l.57,0c.58.05,1.16.12,1.72.2l.52.08c.67.13,1.33.27,2,.46s1,.3,1.48.48c.29.11.58.24.86.37a14.37,14.37,0,0,1,1.31.63l.43.23Z"/><path class="cls-20" d="M975.25,658.14a93.26,93.26,0,0,1-32,30.11q-20,11.54-32.32,7t-12.4-24.38l0-10.05q-.06-19,12.15-37.84a92.76,92.76,0,0,1,32-30.35q20.08-11.6,32.38-7t12.32,24.56l0,10.2Q987.46,639.48,975.25,658.14Zm-49.73-2q0,8.49,4.88,10.87t12.76-2.21a33.73,33.73,0,0,0,12.5-12.46,32.46,32.46,0,0,0,4.6-16.68l0-10.48c0-5.66-1.58-9.33-4.68-11s-7.38-1-12.81,2.15a34.73,34.73,0,0,0-12.52,12.39,32.59,32.59,0,0,0-4.73,17.12l0,10.33"/><polygon class="cls-11" points="1027.28 550.51 1023.23 560.82 1019.11 571.1 1010.75 591.6 1002.21 612.04 997.88 622.23 993.47 632.39 997.51 622.08 1001.64 611.8 1010 591.3 1018.54 570.86 1022.87 560.67 1027.28 550.51"/><polygon class="cls-11" points="1015.29 641.26 1010.76 651.68 1006.16 662.07 996.83 682.79 987.34 703.43 982.53 713.73 977.65 723.99 982.17 713.56 986.78 703.17 996.1 682.46 1005.6 661.81 1010.41 651.52 1015.29 641.26"/><path class="cls-11" d="M976.23,674.14q-1.22,3.25-2.51,6.49l-2.61,6.44-2.69,6.41c-.91,2.13-1.85,4.25-2.8,6.37.82-2.17,1.65-4.34,2.51-6.49l2.61-6.44,2.7-6.41Q974.81,677.32,976.23,674.14Z"/><path class="cls-11" d="M966.8,584.84a44.3,44.3,0,0,0-7.2,1.51l-1.77.51-1.74.59c-1.17.37-2.3.85-3.44,1.29a88,88,0,0,0-13.1,6.64l-3.1,2c-1.05.64-2,1.4-3,2.1-2,1.37-3.91,3-5.85,4.46-1,.74-1.89,1.57-2.81,2.38L922,608.72c-1.81,1.66-3.54,3.41-5.34,5.09,1.67-1.81,3.35-3.61,5.07-5.38l2.7-2.52c.9-.84,1.79-1.7,2.76-2.47,1.89-1.59,3.78-3.17,5.81-4.59,1-.71,2-1.49,3-2.14l3.11-2a82.34,82.34,0,0,1,13.3-6.52A49.92,49.92,0,0,1,966.8,584.84Z"/><g class="cls-2"><g class="cls-21"><g class="cls-2"><path class="cls-5" d="M284,172.05l-23.22-13.49q.45.15.87.33l23.22,13.5c-.28-.12-.57-.23-.87-.34"/><path class="cls-6" d="M284.85,172.39l-23.22-13.5a16.33,16.33,0,0,1,1.73.85l23.23,13.49a17.44,17.44,0,0,0-1.74-.84"/><path class="cls-7" d="M286.59,173.23l-23.23-13.49.19.1,23.22,13.5-.18-.11"/></g></g></g><path class="cls-22" d="M269.22,211.54q0-8.11-4.41-10.67l-23.22-13.5c2.92,1.71,4.4,5.26,4.41,10.68l0,10.75c0,.84,0,1.66-.07,2.46,0,.27,0,.52-.07.79,0,.53-.08,1.07-.14,1.59,0,.24-.08.48-.11.71-.09.62-.19,1.24-.31,1.84-.07.36-.15.71-.23,1.07s-.13.55-.2.82c-.14.52-.29,1-.45,1.55l-.08.26c-.2.6-.42,1.19-.65,1.77-.05.11-.09.23-.14.34-.24.56-.48,1.11-.75,1.66l-.12.24c-.29.56-.58,1.12-.9,1.66l-.09.15c-.31.51-.63,1-1,1.51l-.15.23c-.35.5-.72,1-1.1,1.47l-.41.5-.8.93q-.48.53-1,1.05c-.21.22-.42.44-.65.65s-.65.61-1,.9-.48.45-.73.66-.74.6-1.12.89l-.74.59c-.44.32-.89.63-1.35.94-.22.15-.43.31-.66.46-.69.45-1.41.89-2.15,1.32-.58.34-1.16.64-1.72.92l-.54.24-1,.45c-.61.24-1.21.45-1.79.62l-.21.07-.5.1c-.37.09-.74.17-1.1.23l-.33,0c-.37,0-.74.07-1.1.08h-.4a8.93,8.93,0,0,1-1-.08,2.66,2.66,0,0,1-.28,0,8.31,8.31,0,0,1-1.22-.28l-.27-.1a9.92,9.92,0,0,1-1.13-.46l-.44-.24L239,252.85l.1.06.33.18c.2.1.4.2.61.28l.52.19.27.09.14,0c.31.09.63.16,1,.22l.13,0,.28,0c.2,0,.4.06.6.07s.3,0,.44,0h.4a2.25,2.25,0,0,1,.26,0,8.28,8.28,0,0,0,.84-.09l.34,0h.07c.34,0,.69-.14,1-.22a4.74,4.74,0,0,0,.49-.1h0l.19-.06a15.77,15.77,0,0,0,1.78-.62l.23-.07c.27-.11.54-.25.82-.38l.53-.24c.56-.28,1.14-.58,1.73-.92s1.45-.87,2.14-1.32c.23-.15.44-.31.66-.46.46-.31.91-.62,1.35-.94L257,248c.38-.3.76-.59,1.12-.9s.49-.43.73-.65.67-.59,1-.9l.22-.2c.15-.15.28-.31.43-.46q.51-.51,1-1l.28-.29.52-.63c.14-.17.28-.33.41-.5l.17-.21c.29-.38.57-.76.85-1.15l.08-.12.15-.22c.16-.24.33-.48.48-.72s.33-.53.49-.8l.09-.15,0-.07c.2-.33.38-.66.56-1l.3-.58.12-.25c0-.06.07-.13.1-.2.17-.35.33-.7.49-1.06l.16-.4.14-.33c.05-.14.11-.28.17-.41.16-.43.31-.86.46-1.3a.64.64,0,0,0,0-.07c0-.08.05-.17.08-.25.12-.39.25-.78.36-1.18,0-.12.05-.25.09-.37.07-.27.13-.55.2-.83s.12-.45.17-.68l.06-.39c.12-.6.22-1.21.31-1.83,0-.17.07-.34.09-.52s0-.13,0-.2c.06-.51.1-1,.15-1.58,0-.26.05-.52.06-.79.05-.81.08-1.63.07-2.46Z"/><path class="cls-23" d="M260.76,158.56c-.38-.14-.78-.27-1.17-.39l-.16,0a18.75,18.75,0,0,0-2-.46l-.08,0a2.48,2.48,0,0,0-.27,0c-.61-.1-1.23-.17-1.86-.22l-.32,0h-.27c-.79,0-1.6-.05-2.44,0h-.06c-.55,0-1.11.07-1.67.12l-.3,0c-.44.05-.89.1-1.34.17l-.16,0c-.4.06-.81.14-1.21.22l-.83.16c-.45.1-.92.22-1.38.34l-.66.16h-.05c-.91.25-1.84.54-2.78.86l-.72.25q-1.29.45-2.61,1l-.27.1-.1,0c-.44.18-.89.38-1.33.58l-1,.43-1.45.69-.92.45c-.54.26-1.09.56-1.64.85l-.8.41c-.82.45-1.65.91-2.49,1.4-1.73,1-3.41,2-5.05,3.12-.54.36-1.06.75-1.59,1.11-1.09.75-2.17,1.5-3.21,2.28-.62.46-1.2,1-1.8,1.42-.93.73-1.86,1.47-2.75,2.23-.62.52-1.21,1.07-1.81,1.61-.84.75-1.68,1.52-2.49,2.3-.25.24-.51.45-.75.69-.71.71-1.41,1.44-2.11,2.17l-.24.25c-.82.87-1.63,1.77-2.43,2.68-.2.24-.39.49-.6.73-.53.63-1.05,1.27-1.56,1.91-.39.48-.79.93-1.17,1.42l-.74,1c-.37.49-.74,1-1.1,1.49s-.59.78-.87,1.18c-.6.85-1.19,1.72-1.76,2.6l-.59.91-.31.5c-.45.72-.9,1.45-1.33,2.18-.1.17-.22.34-.32.52s-.09.17-.14.26c-.48.83-.95,1.66-1.39,2.49l-.09.17,0,0c-.46.86-.89,1.73-1.31,2.6l-.1.18-.3.66c-.27.58-.54,1.17-.8,1.75l-.16.36c-.09.2-.17.41-.26.61-.23.56-.46,1.11-.68,1.67l-.21.52c-.06.15-.11.31-.17.46-.23.63-.46,1.25-.67,1.88l-.22.6-.06.23c-.32,1-.61,1.91-.88,2.86,0,0,0,.08,0,.12s-.05.21-.07.32c-.28,1-.52,2-.74,3,0,.14-.07.28-.1.42s0,.24-.07.36q-.13.63-.24,1.26c-.08.38-.15.77-.21,1.15s-.13.84-.19,1.26-.09.56-.13.85c0,.07,0,.14,0,.21-.14,1.13-.25,2.25-.32,3.37,0,.24,0,.47-.05.7-.06,1.16-.1,2.32-.1,3.48l0,10.48q0,12.87,5.47,19.28a16.07,16.07,0,0,0,4.22,3.53l23.23,13.5q-9.66-5.62-9.7-22.82l0-10.47c0-1.16,0-2.32.11-3.48,0-.24,0-.47,0-.7.07-1.13.18-2.25.32-3.37l.15-1.06c.06-.42.12-.84.19-1.27s.14-.76.21-1.14.15-.84.24-1.26c.05-.26.11-.52.17-.79.22-1,.47-2,.74-3,0-.14.07-.29.11-.43.27-1,.56-1.91.88-2.87.09-.27.19-.55.28-.83.22-.62.44-1.25.68-1.87l.37-1c.22-.55.45-1.11.69-1.66.13-.33.27-.65.41-1,.26-.59.53-1.17.81-1.76.13-.28.25-.56.39-.83q.63-1.31,1.32-2.61l.09-.17c.45-.84.92-1.67,1.4-2.51l.46-.78c.43-.72.88-1.45,1.34-2.18.29-.47.58-.94.89-1.4.85-1.3,1.73-2.54,2.63-3.78.37-.51.73-1,1.11-1.5.61-.82,1.25-1.62,1.9-2.41s1-1.29,1.56-1.92c1-1.16,2-2.3,3-3.41l.25-.25c.92-1,1.88-1.92,2.85-2.85.81-.79,1.65-1.55,2.49-2.3.6-.55,1.19-1.09,1.81-1.62.9-.76,1.82-1.49,2.74-2.22.61-.48,1.2-1,1.81-1.42,1-.79,2.12-1.53,3.2-2.28.54-.37,1.06-.75,1.6-1.11q2.46-1.64,5-3.13c.84-.49,1.67-1,2.49-1.39l.83-.43,1.61-.84,1-.46,1.42-.68,1-.43c.44-.2.88-.4,1.31-.58l.38-.15c.88-.36,1.75-.68,2.6-1L265,173c.94-.31,1.87-.61,2.78-.85l.71-.18c.46-.12.93-.24,1.38-.33l.83-.16,1.21-.23c.51-.08,1-.14,1.5-.19l.3,0c.59-.06,1.16-.1,1.73-.13.84,0,1.65,0,2.44,0l.59,0c.63,0,1.25.12,1.86.22l.35,0c.68.12,1.35.28,2,.46.45.13.9.26,1.33.42Z"/><path class="cls-24" d="M284,172.05q12.34,4.41,12.4,24.66l0,10.19q0,18.94-12,37.63a93,93,0,0,1-32.19,30.26q-20.25,11.68-32.51,7t-12.33-24.06l0-10.47q0-19.1,12.29-37.92a93.7,93.7,0,0,1,32-30.2Q271.64,167.62,284,172.05ZM269.25,222.3l0-10.76q0-8.49-4.82-10.89c-3.2-1.6-7.41-.91-12.67,2.13a35.18,35.18,0,0,0-12.65,12.48,31.94,31.94,0,0,0-4.74,16.85l0,10.61c0,5.18,1.73,8.65,5.1,10.37s7.61,1.14,12.68-1.79q17.16-9.92,17.1-29"/><path class="cls-11" d="M294.36,207.83a58.78,58.78,0,0,1-.69,10.08,60.47,60.47,0,0,1-2.47,9.81,76.77,76.77,0,0,1-9.17,18A85.86,85.86,0,0,1,268.69,261a90.14,90.14,0,0,1-7.91,6.29,98.88,98.88,0,0,1-8.58,5.34,96.82,96.82,0,0,0,8.34-5.65,91.72,91.72,0,0,0,7.74-6.44,87.87,87.87,0,0,0,13.08-15.21,78.45,78.45,0,0,0,9.26-17.77,62.52,62.52,0,0,0,2.67-9.68A58.94,58.94,0,0,0,294.36,207.83Z"/><path class="cls-11" d="M258.27,175.67a34.3,34.3,0,0,1,4-2.06A35.18,35.18,0,0,1,266.5,172a28.68,28.68,0,0,1,4.41-1,21.88,21.88,0,0,1,4.5-.22c-1.48.23-2.94.49-4.39.82s-2.87.71-4.29,1.15-2.83.9-4.24,1.37Z"/><path class="cls-11" d="M234.37,242.72c.18,2.88.79,5.86,2.64,8a8.59,8.59,0,0,0,3.4,2.37,9,9,0,0,0,4.12.5,20.11,20.11,0,0,0,8-2.88,46.61,46.61,0,0,0,7.13-5,34.09,34.09,0,0,1-6.81,5.49,19.77,19.77,0,0,1-8.24,3.15,9.18,9.18,0,0,1-8.06-3.28,10.41,10.41,0,0,1-1.86-4A17.34,17.34,0,0,1,234.37,242.72Z"/><path class="cls-11" d="M269.23,214.08a39.7,39.7,0,0,0-.76-7,8.84,8.84,0,0,0-3.55-5.64,7.5,7.5,0,0,0-3.14-1.18,11.65,11.65,0,0,0-3.43.15,26.55,26.55,0,0,0-6.62,2.39,20.34,20.34,0,0,1,6.49-3,10.64,10.64,0,0,1,3.65-.26,8.13,8.13,0,0,1,3.49,1.23,7.69,7.69,0,0,1,2.49,2.74,10.41,10.41,0,0,1,1.22,3.44,19.73,19.73,0,0,1,.33,3.59C269.37,211.71,269.31,212.89,269.23,214.08Z"/><g class="cls-2"><g class="cls-25"><g class="cls-2"><path class="cls-5" d="M186,113.14l-23.22-13.5c.3.11.59.22.87.34l23.22,13.49q-.42-.18-.87-.33"/><path class="cls-6" d="M186.87,113.47,163.65,100a17.44,17.44,0,0,1,1.74.84l23.22,13.5a16.49,16.49,0,0,0-1.74-.85"/><path class="cls-7" d="M188.61,114.32l-23.22-13.5.18.11,23.22,13.49-.18-.1"/></g></g></g><path class="cls-26" d="M171.24,152.63q0-8.13-4.41-10.67l-23.22-13.5Q148,131,148,139.13l0,10.76c0,.83,0,1.65-.07,2.46,0,.26,0,.52-.06.78,0,.54-.09,1.07-.15,1.6,0,.24-.07.47-.11.71-.09.62-.19,1.23-.31,1.83-.07.36-.15.72-.23,1.07s-.13.56-.2.83c-.14.52-.29,1-.45,1.55,0,.08-.05.17-.08.26-.2.6-.42,1.19-.65,1.77l-.14.33c-.23.56-.48,1.12-.75,1.66l-.12.25c-.29.56-.58,1.11-.9,1.66l-.09.14c-.31.52-.63,1-1,1.52l-.15.22c-.35.5-.72,1-1.1,1.48-.13.17-.27.33-.41.5s-.53.62-.8.92-.65.71-1,1-.42.44-.65.66-.64.6-1,.9l-.73.66c-.36.3-.74.59-1.12.89l-.74.58c-.44.32-.89.63-1.35,1l-.66.45c-.69.45-1.4.9-2.14,1.32-.59.34-1.17.64-1.73.92l-.53.25c-.36.16-.7.31-1,.45a18.05,18.05,0,0,1-1.79.61l-.21.07c-.17.05-.33.07-.49.11-.37.08-.75.17-1.1.22l-.33,0c-.38,0-.75.07-1.11.08h-.4a8.93,8.93,0,0,1-1-.07l-.28,0a8.33,8.33,0,0,1-1.22-.29l-.27-.09a8.44,8.44,0,0,1-1.13-.47c-.15-.07-.29-.15-.43-.23l23.22,13.49.1.06.33.18.61.28c.17.07.35.12.52.18l.27.1.14,0c.31.09.63.16.95.22h.13l.29,0,.59.08h1.1c.28,0,.56,0,.85-.08l.33,0h.08c.33,0,.68-.14,1-.22l.49-.1h0l.19-.06c.58-.17,1.18-.38,1.78-.62l.23-.08c.27-.11.55-.24.82-.37l.53-.24c.57-.28,1.14-.58,1.73-.92.74-.43,1.45-.87,2.15-1.32.22-.15.43-.31.66-.46.45-.31.91-.62,1.34-.94.26-.19.5-.39.74-.59s.76-.59,1.12-.89.49-.44.73-.65l1-.9.21-.2c.15-.15.29-.31.43-.46q.51-.53,1-1l.28-.29c.18-.21.35-.43.52-.64s.28-.33.41-.5.12-.13.17-.2c.29-.38.58-.76.85-1.15l.08-.12.15-.23c.16-.24.33-.47.48-.71l.49-.8.09-.15,0-.08c.19-.33.37-.66.55-1s.2-.39.3-.59l.12-.24c0-.07.07-.13.1-.2.17-.35.33-.71.49-1.06.06-.14.11-.27.16-.4s.09-.23.14-.34.11-.27.17-.41c.16-.43.32-.86.46-1.29,0,0,0,0,0-.07s0-.17.08-.26c.12-.39.25-.78.36-1.18l.09-.37c.07-.27.13-.55.2-.82s.12-.46.17-.69l.06-.38c.12-.6.22-1.21.31-1.83,0-.18.07-.35.09-.53s0-.13,0-.19c.06-.52.11-1.05.15-1.58,0-.27.05-.53.07-.8,0-.81.07-1.62.06-2.45Z"/><path class="cls-27" d="M162.78,99.64c-.38-.14-.77-.26-1.17-.38l-.16,0c-.65-.18-1.32-.34-2-.46l-.09,0a2.48,2.48,0,0,1-.27,0c-.61-.09-1.23-.17-1.86-.21-.11,0-.21,0-.32,0h-.27a22,22,0,0,0-2.44,0h-.06c-.55,0-1.1.06-1.67.12l-.3,0c-.44.05-.89.1-1.34.17l-.15,0-1.22.23-.83.16c-.45.09-.92.21-1.38.33l-.66.16,0,0c-.91.24-1.84.54-2.78.85l-.72.26c-.86.3-1.72.63-2.61,1l-.27.1-.1,0c-.44.18-.89.39-1.33.58l-1,.43-1.45.7-.92.44c-.54.27-1.09.56-1.63.85l-.81.42c-.82.44-1.65.91-2.49,1.39-1.73,1-3.41,2.05-5.05,3.13-.54.36-1.06.74-1.59,1.11-1.08.74-2.17,1.49-3.21,2.28-.61.46-1.2.94-1.8,1.41-.93.74-1.85,1.47-2.75,2.23-.61.53-1.21,1.07-1.81,1.61-.84.76-1.68,1.52-2.49,2.31-.24.23-.51.45-.75.69q-1.07,1.06-2.1,2.16c-.08.09-.17.17-.25.25-.82.88-1.63,1.77-2.42,2.68-.21.24-.4.5-.61.74-.53.62-1,1.26-1.56,1.9-.39.48-.79.94-1.17,1.43-.25.32-.49.66-.73,1-.38.5-.74,1-1.11,1.5s-.58.77-.86,1.17q-.9,1.29-1.77,2.61c-.2.3-.4.6-.59.91-.11.16-.2.33-.3.49-.46.73-.91,1.46-1.34,2.18-.1.18-.21.35-.32.52l-.14.27c-.48.82-.94,1.65-1.39,2.48l-.09.17v0q-.69,1.31-1.32,2.61l-.1.18c-.1.22-.19.44-.3.66-.27.58-.54,1.16-.8,1.75,0,.11-.11.23-.16.35s-.17.41-.25.62c-.24.55-.47,1.11-.68,1.66-.07.18-.15.35-.22.53s-.11.3-.16.46c-.24.62-.46,1.25-.68,1.88-.07.2-.15.4-.21.6a1.87,1.87,0,0,0-.07.22c-.32,1-.61,1.91-.88,2.87a.56.56,0,0,1,0,.12c0,.1,0,.21-.07.31-.27,1-.52,2-.74,3,0,.15-.07.29-.1.43s0,.24-.07.36c-.09.42-.16.84-.24,1.26S87,164.6,87,165s-.13.84-.19,1.26-.09.56-.13.84c0,.07,0,.15,0,.22-.14,1.12-.25,2.25-.32,3.37,0,.23,0,.47,0,.7-.07,1.16-.11,2.32-.11,3.48l0,10.48q0,12.87,5.47,19.27a16.35,16.35,0,0,0,4.23,3.54l23.22,13.49q-9.66-5.61-9.7-22.81l0-10.47c0-1.17,0-2.33.11-3.49,0-.23,0-.46,0-.7.08-1.12.18-2.24.32-3.37l.15-1.06c.06-.42.12-.84.19-1.26l.21-1.15c.08-.42.15-.84.24-1.26.06-.26.12-.52.17-.78.22-1,.47-2,.74-3,0-.15.07-.29.11-.44.27-1,.56-1.91.88-2.86.09-.28.19-.55.28-.83.22-.63.44-1.25.68-1.88.12-.33.25-.65.38-1,.22-.56.44-1.11.68-1.67.14-.32.27-.65.41-1,.26-.58.53-1.17.81-1.75.13-.28.25-.56.39-.84.42-.87.86-1.74,1.32-2.6l.09-.18c.45-.83.92-1.67,1.4-2.5l.46-.78c.44-.73.88-1.46,1.34-2.19.3-.46.59-.93.89-1.4.85-1.29,1.74-2.54,2.63-3.78.37-.5.73-1,1.11-1.49.62-.82,1.26-1.62,1.9-2.42.52-.64,1-1.28,1.57-1.91,1-1.16,2-2.31,3-3.41l.25-.25c.92-1,1.89-1.92,2.85-2.86.81-.78,1.65-1.54,2.49-2.3.6-.54,1.2-1.09,1.81-1.61.9-.76,1.82-1.5,2.75-2.23.6-.47,1.19-1,1.8-1.42,1-.78,2.12-1.53,3.21-2.27.53-.37,1.05-.76,1.59-1.12,1.64-1.08,3.32-2.13,5.05-3.12.84-.49,1.68-.95,2.5-1.4l.82-.43c.54-.28,1.08-.57,1.61-.83l1-.46c.47-.23,1-.47,1.41-.68s.67-.29,1-.44l1.31-.57.38-.15c.88-.36,1.75-.69,2.6-1L167,114c.94-.32,1.88-.61,2.78-.86l.71-.17c.46-.12.93-.24,1.39-.34l.82-.16c.41-.08.82-.16,1.22-.22s1-.14,1.49-.2l.3,0q.88-.09,1.74-.12c.83,0,1.64,0,2.44,0l.58,0c.64.05,1.25.12,1.86.22l.36.05a18.56,18.56,0,0,1,2,.46c.45.12.9.26,1.33.42Z"/><path class="cls-28" d="M186,113.14q12.34,4.39,12.4,24.66l0,10.19q.06,18.94-12,37.62a93.14,93.14,0,0,1-32.19,30.27q-20.23,11.69-32.51,7c-8.19-3.1-12.29-11.15-12.33-24.06l0-10.47q0-19.1,12.29-37.93a93.77,93.77,0,0,1,32-30.19Q173.66,108.69,186,113.14Zm-14.72,50.25,0-10.76q0-8.49-4.82-10.9c-3.2-1.6-7.41-.9-12.67,2.13a35,35,0,0,0-12.64,12.49,32,32,0,0,0-4.75,16.84l0,10.62c0,5.17,1.73,8.64,5.1,10.37s7.61,1.13,12.68-1.79q17.16-9.91,17.11-29"/><path class="cls-11" d="M196.38,148.91a57.65,57.65,0,0,1-.69,10.08,60.59,60.59,0,0,1-2.47,9.82,76.32,76.32,0,0,1-9.17,18A85.51,85.51,0,0,1,170.72,202a90.39,90.39,0,0,1-7.92,6.3,98.77,98.77,0,0,1-8.58,5.33,96.25,96.25,0,0,0,8.35-5.65,89.71,89.71,0,0,0,7.73-6.44,88.68,88.68,0,0,0,13.09-15.2,78.63,78.63,0,0,0,9.25-17.77,61.24,61.24,0,0,0,2.67-9.69A57.83,57.83,0,0,0,196.38,148.91Z"/><path class="cls-11" d="M127.26,142.72a84.5,84.5,0,0,1,10.17-11.14,93,93,0,0,1,12-9.21,88.41,88.41,0,0,1,13.37-7.06,40.68,40.68,0,0,1,14.66-3.38,36.82,36.82,0,0,0-7.38,1.38,53.38,53.38,0,0,0-7,2.57,94.25,94.25,0,0,0-13.17,7.17,99.11,99.11,0,0,0-12,9A107.76,107.76,0,0,0,127.26,142.72Z"/><path class="cls-11" d="M136.39,183.81c.18,2.87.79,5.86,2.64,8a8.53,8.53,0,0,0,3.41,2.36,9,9,0,0,0,4.11.51,20.07,20.07,0,0,0,8-2.89,45.85,45.85,0,0,0,7.13-4.95,33.7,33.7,0,0,1-6.81,5.48,19.74,19.74,0,0,1-8.23,3.16,9.19,9.19,0,0,1-8.07-3.28,10.32,10.32,0,0,1-1.85-4A17,17,0,0,1,136.39,183.81Z"/><path class="cls-11" d="M171.25,155.17a39.91,39.91,0,0,0-.75-7,8.83,8.83,0,0,0-3.56-5.63,7.45,7.45,0,0,0-3.14-1.18,11.64,11.64,0,0,0-3.43.14,27,27,0,0,0-6.62,2.39,20.63,20.63,0,0,1,6.49-3,10.65,10.65,0,0,1,3.65-.27,8.21,8.21,0,0,1,3.49,1.23,7.9,7.9,0,0,1,2.5,2.74A11.06,11.06,0,0,1,171.1,148a20.65,20.65,0,0,1,.32,3.59C171.39,152.8,171.33,154,171.25,155.17Z"/><polygon class="cls-29" points="238.47 76.23 261.7 89.72 162.14 308.51 142.29 309.2 238.47 76.23"/><polygon class="cls-30" points="142.29 309.2 119.06 295.71 218.62 76.92 238.47 76.23 142.29 309.2"/><path class="cls-31" d="M170.63,166.91c.06-.45.09-.9.13-1.35,0-.24.05-.47.07-.71,0-.71.07-1.42.07-2.14l0-10.48c0-5.56-1.54-9.2-4.53-10.94l-23.23-13.5c3,1.74,4.52,5.38,4.53,11l0,10.47c0,.72,0,1.44-.06,2.15,0,.24-.05.47-.07.7,0,.47-.08.95-.14,1.41-.1.79-.24,1.57-.4,2.35-.12.57-.26,1.13-.41,1.69a2.86,2.86,0,0,1-.07.28c-.17.63-.37,1.26-.58,1.88-.06.15-.11.3-.16.44-.19.53-.4,1.06-.62,1.58,0,.09-.07.18-.11.27-.25.59-.53,1.18-.82,1.76l-.19.39c-.31.6-.63,1.2-1,1.79s-.7,1.14-1.07,1.7l-.29.43c-.33.49-.67,1-1,1.43l-.18.24c-.42.54-.86,1.08-1.31,1.59s-1.07,1.18-1.63,1.74c-.29.29-.6.56-.91.84s-.45.44-.69.64-.69.57-1,.85-.43.37-.66.54c-.4.3-.82.59-1.23.88-.2.13-.38.27-.57.4-.62.41-1.25.8-1.9,1.18s-1.25.69-1.85,1l-.59.27c-.4.19-.81.37-1.2.53l-.35.13c-.43.17-.86.32-1.27.45l-.35.1c-.31.09-.61.15-.91.22l-.73.15a12.09,12.09,0,0,1-1.41.15h-.12a9.5,9.5,0,0,1-1.2,0l-.32,0a8.35,8.35,0,0,1-1.13-.21l-.08,0a9,9,0,0,1-1.25-.48l-.48-.25,23.23,13.49.08,0,.39.21.38.17a7.55,7.55,0,0,0,.84.29h0l.08,0c.26.07.51.13.77.18l.36,0,.32,0,.28,0c.3,0,.61,0,.92,0h.15a11.29,11.29,0,0,0,1.25-.13l.13,0c.24,0,.48-.11.73-.16l.72-.15.19-.06.35-.11c.42-.13.84-.27,1.28-.44l.34-.13.2-.08c.32-.13.67-.3,1-.46l.58-.27c.6-.3,1.22-.62,1.85-1s1.28-.76,1.9-1.17c.2-.14.38-.28.58-.41.41-.29.82-.57,1.22-.88.23-.17.45-.36.68-.54s.69-.55,1-.84.46-.43.69-.64.59-.52.87-.8l0,0c.56-.55,1.11-1.13,1.63-1.73l.05-.06c.42-.48.82-1,1.21-1.47l0-.07.18-.24c.26-.34.51-.67.75-1,.1-.13.18-.27.27-.4s.2-.29.29-.44l.3-.44c.26-.41.52-.83.77-1.26h0c.25-.43.48-.85.71-1.28.09-.16.17-.33.25-.49l.2-.39.19-.38q.3-.63.57-1.26l.06-.12.1-.27c.13-.31.26-.61.38-.92l.24-.66c.05-.15.11-.3.16-.44l.1-.3q.26-.78.48-1.56v0l.06-.27c.14-.53.28-1.05.39-1.58,0,0,0-.08,0-.13.16-.77.3-1.55.4-2.34C170.62,167,170.63,166.93,170.63,166.91Z"/><path class="cls-32" d="M165.06,100.44l-.19-.1-.24-.12c-.43-.23-.86-.44-1.31-.64l-.24-.12c-.21-.08-.41-.17-.62-.24-.46-.18-.93-.33-1.41-.47l-.07,0c-.64-.18-1.3-.33-2-.45l-.17,0-.35,0c-.56-.09-1.14-.16-1.72-.2-.12,0-.23,0-.35,0h-.22c-.78,0-1.58,0-2.4,0h-.14l-1.18.09-.38,0c-.56,0-1.14.12-1.72.21l-.08,0c-.46.07-.93.16-1.4.25-.21,0-.42.08-.64.12q-1,.22-2.1.51h0c-.9.24-1.81.53-2.74.84l-.75.26c-.88.31-1.77.64-2.67,1l-.2.07-.06,0-1.31.57c-.34.15-.66.28-1,.44s-.94.45-1.42.67l-1,.46-1.64.86-.79.41c-.82.45-1.66.91-2.5,1.4q-2.6,1.5-5.05,3.13c-.55.36-1.06.74-1.6,1.11-1.08.74-2.16,1.49-3.2,2.27-.62.46-1.2,1-1.8,1.43-.93.72-1.85,1.45-2.74,2.21-.62.53-1.21,1.08-1.81,1.62-.84.75-1.66,1.5-2.47,2.28-.21.21-.45.41-.67.62-.83.83-1.65,1.67-2.45,2.53-.05,0-.09.1-.14.14-.72.78-1.44,1.57-2.14,2.38-.25.29-.48.6-.73.89-.52.6-1,1.22-1.52,1.85-.34.42-.7.82-1,1.25s-.61.83-.92,1.25-.71,1-1.06,1.44c-.22.3-.45.6-.67.91-.7,1-1.38,2-2,3l-.25.4c-.1.15-.19.31-.28.46-.49.78-1,1.55-1.43,2.33-.09.15-.19.3-.27.45l-.25.44c-.38.67-.75,1.34-1.12,2l-.31.55-.09.19c-.47.89-.92,1.77-1.35,2.66l0,0-.12.28c-.37.77-.72,1.54-1.06,2.31a2.4,2.4,0,0,1-.11.23l-.26.63c-.25.6-.49,1.2-.73,1.79,0,.15-.12.29-.18.44l-.18.51c-.24.63-.46,1.27-.68,1.9l-.21.57-.08.29c-.32,1-.62,1.93-.89,2.89a.64.64,0,0,1,0,.07c0,.07,0,.14,0,.21-.29,1.05-.54,2.09-.77,3.13,0,.14-.07.28-.1.42s0,.26-.08.4c-.09.42-.17.85-.24,1.27s-.15.76-.21,1.13-.13.86-.19,1.29c0,.27-.09.54-.12.81a1.64,1.64,0,0,0,0,.22c-.15,1.12-.25,2.24-.33,3.37,0,.23,0,.46,0,.69-.06,1.16-.11,2.32-.1,3.48l0,10a40.7,40.7,0,0,0,1.88,13A25.31,25.31,0,0,0,89,200.38a19.86,19.86,0,0,0,1.51,2.51A18,18,0,0,0,92.32,205a16.91,16.91,0,0,0,2.11,1.77q.57.39,1.17.75l23.22,13.49q-9.63-5.6-9.68-23.11l0-10.05c0-1.16,0-2.32.1-3.48,0-.23,0-.46,0-.69q.12-1.68.33-3.36c0-.35.09-.7.14-1s.12-.85.19-1.28l.21-1.14c.08-.42.15-.85.24-1.27l.18-.81c.23-1,.48-2.09.77-3.13,0-.1,0-.19.07-.28.27-1,.57-1.93.89-2.9.09-.28.19-.57.29-.86.22-.63.44-1.26.68-1.9l.36-.94c.24-.6.48-1.2.74-1.8l.36-.86c.34-.77.69-1.54,1.06-2.3l.14-.32c.43-.88.88-1.77,1.35-2.65.13-.25.27-.5.41-.75.36-.67.73-1.34,1.12-2l.51-.89c.46-.77.94-1.55,1.43-2.32.18-.29.35-.58.54-.86.87-1.35,1.78-2.66,2.71-4l1.06-1.44c.64-.84,1.29-1.67,2-2.5.5-.62,1-1.24,1.52-1.85.94-1.11,1.89-2.2,2.87-3.26l.14-.15c1-1.08,2.06-2.12,3.13-3.15.8-.77,1.63-1.52,2.46-2.27.6-.55,1.2-1.1,1.81-1.62.89-.76,1.81-1.49,2.73-2.22.61-.47,1.2-1,1.81-1.42,1-.79,2.12-1.53,3.2-2.27.53-.37,1-.76,1.6-1.12,1.64-1.08,3.32-2.13,5.05-3.13.85-.49,1.68-1,2.5-1.39l.8-.42c.54-.29,1.1-.58,1.64-.85.31-.16.62-.3.94-.45l1.43-.69,1-.43,1.32-.58.26-.1c.91-.37,1.8-.7,2.67-1l.75-.25c.93-.32,1.85-.61,2.74-.85h0c.71-.19,1.42-.36,2.11-.51.21-.05.42-.08.63-.12.47-.09.94-.19,1.4-.26s1.21-.17,1.81-.23l.37,0,1.32-.08c.82,0,1.62,0,2.4,0l.57,0c.59.05,1.16.12,1.72.2l.52.08c.67.13,1.33.27,2,.46s1,.3,1.48.48c.3.11.58.24.86.37a14.37,14.37,0,0,1,1.31.63l.43.23Z"/><path class="cls-33" d="M185.88,185.23a93.26,93.26,0,0,1-32,30.11q-20,11.53-32.32,7t-12.39-24.38l0-10.05q-.06-19,12.15-37.84a92.67,92.67,0,0,1,32-30.35q20.1-11.6,32.38-7T198,137.27l0,10.19Q198.09,166.57,185.88,185.23Zm-49.73-2q0,8.49,4.88,10.87t12.76-2.21a33.73,33.73,0,0,0,12.5-12.46,32.47,32.47,0,0,0,4.61-16.68l0-10.48q0-8.49-4.69-11c-3.11-1.72-7.38-1-12.81,2.15a34.73,34.73,0,0,0-12.52,12.39,32.66,32.66,0,0,0-4.73,17.12l0,10.33"/><polygon class="cls-11" points="237.91 77.6 233.87 87.91 229.74 98.19 221.38 118.69 212.84 139.13 208.51 149.32 204.1 159.48 208.15 149.17 212.27 138.89 220.63 118.39 229.17 97.95 233.5 87.76 237.91 77.6"/><polygon class="cls-11" points="225.92 168.35 221.39 178.77 216.79 189.16 207.47 209.88 197.97 230.52 193.16 240.81 188.28 251.07 192.81 240.65 197.41 230.26 206.73 209.54 216.23 188.9 221.04 178.61 225.92 168.35"/><path class="cls-11" d="M186.86,201.23q-1.22,3.26-2.51,6.49l-2.61,6.44-2.69,6.41q-1.37,3.19-2.8,6.37c.82-2.17,1.65-4.34,2.51-6.49l2.61-6.44,2.7-6.41C185,205.47,185.91,203.34,186.86,201.23Z"/><path class="cls-11" d="M177.44,111.93a44.2,44.2,0,0,0-7.21,1.51l-1.77.51-1.74.59c-1.17.37-2.3.85-3.44,1.29a88,88,0,0,0-13.1,6.64l-3.1,2c-1.05.63-2,1.4-3,2.1-2,1.37-3.91,3-5.85,4.46-1,.74-1.89,1.57-2.81,2.38l-2.77,2.43c-1.81,1.66-3.54,3.41-5.34,5.09,1.67-1.81,3.35-3.61,5.07-5.38l2.7-2.52c.9-.84,1.79-1.7,2.76-2.47,1.89-1.59,3.78-3.17,5.81-4.59,1-.71,2-1.49,3-2.14l3.11-2a82.34,82.34,0,0,1,13.3-6.52A49.91,49.91,0,0,1,177.44,111.93Z"/><g id="_Grupo_" data-name="&lt;Grupo&gt;"><g class="cls-2"><path class="cls-34" d="M711.91,132.61,711.64,225,574.76,304.56l.26-92.41Z"/><path class="cls-35" d="M711.91,33C671.9,56.2,623.46,84.34,575,112.5,573.6,72.71,572.16,32.89,571,0,621.81-.48,673,10.48,711.91,33Z"/><path class="cls-36" d="M575,212.15l-.26,92.41c-68.67,2.08-137.3,180.55-193.94,182.25L381.07,218C437.73,216.33,506.35,214.22,575,212.15Z"/><polygon class="cls-37" points="575.02 212.17 575.02 212.18 575.01 212.16 575.02 212.17"/><path class="cls-38" d="M571,99.67c1.17,32.88,2.61,72.69,4,112.48-68.67,2.07-137.29,4.18-193.95,5.88-2.92-30.71,15.77-62,56.14-85.42C474.17,111.13,522.42,100.16,571,99.67Z"/><path class="cls-39" d="M769.23,212.7q-.13,46.2-.26,92.41c0,12.87-3.86,25.71-11.47,37.95l.26-92.41C765.36,238.41,769.19,225.56,769.23,212.7Z"/><path class="cls-40" d="M711.91,132.61c55.27,31.92,70.6,78.25,45.85,118L575,212.17C623.46,184,671.9,155.86,711.91,132.61Z"/><path class="cls-41" d="M757.76,250.65l-.26,92.41L574.76,304.58l.26-92.41Z"/><path class="cls-42" d="M502.81,316.5l-.26,268.77c-23.53-5.49-45.6-13.74-64.71-24.78-35.46-20.47-54.47-46.87-57-73.68L381.07,218c2.56,26.82,21.57,53.21,57,73.69C457.21,302.75,479.28,311,502.81,316.5Z"/><path class="cls-43" d="M574.71,464c-25.59,37-51.1,90.85-72.16,121.29l.26-268.77c21.06-30.45,46.58-67.31,72.15-104.35C574.88,239.88,583,437.53,574.71,464Z"/><path class="cls-44" d="M575,212.15c-25.57,37-51.09,73.9-72.15,104.35-23.53-5.49-45.6-13.75-64.7-24.78-35.47-20.48-54.48-46.87-57-73.69C437.73,216.33,506.35,214.22,575,212.15Z"/><path class="cls-45" d="M789.93,269.22l-.27,239.9c-9.29,15-24.28,29-44.95,41.08-17.31,10-37.07,17.79-58.19,23.25l.25-239.91c21.12-5.46,40.89-13.19,58.2-23.25C765.65,298.27,780.63,284.22,789.93,269.22Z"/><path class="cls-46" d="M686.77,333.54l-.25,239.91c-23.28-30-51.43-54.48-79.59-90.86l.25-251.84C635.36,267.13,663.5,303.52,686.77,333.54Z"/><path class="cls-47" d="M789.93,269.22c-9.3,15-24.28,29-45,41.07-17.31,10.06-37.08,17.79-58.2,23.25-23.27-30-51.41-66.41-79.59-102.79Z"/><path class="cls-48" d="M575.1,249.47c28.3,36.23,56.46,72.61,79.71,102.65-48,12.39-103.07,12.9-151.81,1.53C524.09,323.2,549.59,286.33,575.1,249.47Z"/><path class="cls-49" d="M654.81,352.12l-.25,232.64c-48,12.4-103.08,12.9-151.81,1.53L503,353.65C551.74,365,606.78,364.51,654.81,352.12Z"/></g></g><polygon class="cls-50" points="711.91 32.95 711.91 132.6 576.62 211.24 575.02 112.5 711.91 32.95"/><polygon class="cls-51" points="570.99 0.02 570.99 99.67 574.96 212.15 576.62 211.24 575.02 112.5 570.99 0.02"/><path class="cls-11" d="M691.12,332.38A234.1,234.1,0,0,0,717.58,322a235.6,235.6,0,0,0,25-13.34l3-1.82c1-.61,2-1.29,3-1.94l5.89-3.92c3.81-2.79,7.72-5.45,11.36-8.47,7.53-5.75,14.34-12.33,21.23-18.93a148.15,148.15,0,0,1-19.81,20.65l-2.7,2.36c-.88.81-1.87,1.49-2.81,2.23l-5.7,4.38c-1.94,1.39-3.95,2.69-5.93,4.05-1,.66-2,1.36-3,2l-3.07,1.87c-4.07,2.52-8.31,4.76-12.54,7l-6.47,3.09c-2.17,1-4.39,1.91-6.59,2.84A141.23,141.23,0,0,1,691.12,332.38Z"/><path class="cls-11" d="M754.27,261.71q-18.45-3.57-36.87-7.3L699,250.68l-18.4-3.81c-12.26-2.56-24.53-5.07-36.78-7.71l-36.74-7.87.55-.88L623,250.57l15.23,20.25L622.41,251l-15.67-19.91-.93-1.19,1.49.31,36.79,7.61c12.27,2.52,24.52,5.17,36.77,7.77l18.37,3.93,18.36,4Q736,257.52,754.27,261.71Z"/><path class="cls-11" d="M576.62,211.24q-8.83,13.44-17.89,26.71l-9,13.28-9.17,13.21-9.16,13.2c-3.06,4.4-6.18,8.75-9.27,13.13-6.2,8.73-12.34,17.51-18.65,26.17l-.31.42-.48-.11c-6.6-1.58-13.09-3.42-19.54-5.42s-12.85-4.19-19.13-6.68a192.4,192.4,0,0,1-18.47-8.33,92.85,92.85,0,0,1-16.94-11,80.06,80.06,0,0,0,8.32,5.71c2.88,1.75,5.84,3.35,8.86,4.84a191.94,191.94,0,0,0,18.57,7.9q9.46,3.48,19.16,6.36c6.44,1.91,13,3.66,19.5,5.13l-.79.31c6-8.89,12.15-17.65,18.25-26.46,3.06-4.39,6.08-8.81,9.18-13.18l9.29-13.12,9.28-13.11,9.41-13Q567,224.11,576.62,211.24Z"/><path class="cls-11" d="M706.88,135.53c-5.31,3.36-10.68,6.61-16,9.92l-16.13,9.72c-10.77,6.46-21.63,12.76-32.44,19.14S620.54,186.87,609.6,193l-16.44,9.2c-5.51,3-11,6.06-16.54,9,5.3-3.37,10.68-6.61,16-9.92l16.14-9.72c10.76-6.46,21.62-12.76,32.44-19.14S663,159.9,673.9,153.75l16.43-9.21C695.85,141.54,701.33,138.48,706.88,135.53Z"/><path class="cls-11" d="M702.71,37.23Q687.38,46.88,672,56.4c-10.28,6.33-20.53,12.71-30.84,19l-30.9,18.88-31,18.77.31-.55L579.38,133l-.27,20.5L578.82,174l-.39,20.5L578.29,174l-.06-20.5,0-20.51,0-20.51v-.35l.3-.19,30.92-18.87,31-18.75c10.32-6.26,20.71-12.41,31.06-18.63S692.3,43.35,702.71,37.23Z"/><path class="cls-11" d="M640.57,9.41Q632.45,8,624.27,7c-5.45-.72-10.91-1.34-16.38-1.82S597,4.22,591.47,4s-11-.39-16.45-.41l.71-.73c.08,5.84,0,11.66,0,17.48s0,11.65-.11,17.47l-.24,17.47c-.13,5.82-.22,11.64-.41,17.46-.14-5.82-.19-11.64-.3-17.46l-.16-17.47c-.08-5.82,0-11.64-.09-17.47s-.07-11.64-.16-17.45l0-.73H575c5.51.07,11,.19,16.52.54s11,.75,16.46,1.39,10.93,1.35,16.37,2.22S635.22,8.15,640.57,9.41Z"/><path class="cls-11" d="M641.75,355.16a141.76,141.76,0,0,1-17,4.17c-2.87.53-5.76,1-8.65,1.43-1.45.21-2.9.43-4.35.61l-4.36.48a285,285,0,0,1-35.06,1.5c-2.92-.08-5.84-.24-8.77-.36l-4.38-.21-4.37-.36-8.74-.78c-2.91-.36-5.8-.74-8.7-1.13l-4.35-.59c-1.44-.21-2.88-.48-4.32-.74l-8.62-1.57-2.15-.41-2.13-.49-4.27-1q-4.26-1-8.51-2.07c2.9.41,5.78.84,8.66,1.29l4.31.68,2.16.34,2.16.27,8.66,1.09c1.45.17,2.88.4,4.33.55l4.34.41c2.89.27,5.78.55,8.67.86l8.69.57,4.34.31,4.35.17c2.9.1,5.8.23,8.7.3l8.71.08c2.9.07,5.8-.12,8.7-.13,1.45,0,2.9,0,4.35-.09l4.35-.21,4.35-.21c1.45-.07,2.89-.2,4.34-.3A271,271,0,0,0,641.75,355.16Z"/><polygon class="cls-11" points="504.25 316.5 502.56 421.34 501.38 316.5 504.25 316.5"/><path class="cls-11" d="M761.83,193a44,44,0,0,1,4.51,13.3,55.88,55.88,0,0,1,.75,14.15c0,1.19-.26,2.36-.39,3.54l-.23,1.77c-.11.59-.24,1.16-.36,1.75l-.75,3.49-1,3.41-.52,1.71c-.2.56-.44,1.1-.66,1.66l-1.33,3.31a15.78,15.78,0,0,1-.74,1.62l-.8,1.59-1.61,3.19-2.53-.71a1.23,1.23,0,0,0,.22.77,1.46,1.46,0,0,0,.24.28l.18.12,0,0-.09,0-.28-.08-.66-.17-1.38-.33-2.82-.6-5.68-1.14-11.39-2.21L711.74,239q-11.4-2.25-22.77-4.61c-7.58-1.58-15.16-3.2-22.71-4.94,7.69,1,15.35,2.13,23,3.32s15.29,2.45,22.93,3.76l11.44,2,11.42,2.12q5.72,1,11.41,2.23l5.71,1.18,2.85.64,1.44.35.75.21.41.13.25.1.21.09a2,2,0,0,1,.25.18s0,0,.27.3a1.48,1.48,0,0,1,.25.81l-2.54-.71,1.62-3,.81-1.52a14.59,14.59,0,0,0,.75-1.54l1.35-3.17c.22-.53.47-1.05.67-1.59l.54-1.63,1.11-3.26L764,227c.13-.55.29-1.11.4-1.67l.29-1.7c.16-1.13.42-2.26.52-3.41a58.44,58.44,0,0,0,0-13.8A48.94,48.94,0,0,0,761.83,193Z"/><path class="cls-11" d="M646.85,362q.84,20.56,1.12,41.13c.22,13.72.28,27.43.31,41.14l-.07,20.56c-.08,6.86-.11,13.72-.24,20.57q-.29,20.57-1.12,41.13Q646,506,645.73,485.4c-.13-6.85-.16-13.71-.24-20.57l-.07-20.56c0-13.71.09-27.42.32-41.14S646.3,375.71,646.85,362Z"/><path class="cls-11" d="M686.68,437.2c.59,8.85.9,17.7,1.11,26.55s.29,17.7.32,26.55L688,503.58c-.08,4.42-.1,8.85-.23,13.28-.21,8.85-.53,17.7-1.12,26.55-.6-8.85-.91-17.7-1.12-26.55-.13-4.43-.16-8.86-.24-13.28l-.08-13.28c0-8.85.09-17.7.32-26.55S686.08,446.05,686.68,437.2Z"/><path class="cls-11" d="M781.42,303.91q.83,24.43,1.11,48.87c.23,16.29.29,32.58.32,48.87l-.08,24.44c-.08,8.15-.1,16.29-.24,24.44q-.27,24.44-1.11,48.87-.84-24.43-1.12-48.87c-.14-8.15-.16-16.29-.24-24.44L780,401.65c0-16.29.09-32.58.32-48.87S780.86,320.2,781.42,303.91Z"/><path class="cls-52" d="M211.2,661.75c0-.4,0-.8-.08-1.2q-.19-2.82-.55-5.67c0-.11,0-.22,0-.33-.06-.41-.13-.83-.19-1.25-.13-.89-.26-1.78-.41-2.67-.1-.6-.21-1.2-.32-1.8-.15-.86-.32-1.72-.49-2.58-.06-.29-.11-.58-.17-.86s-.1-.39-.14-.59q-.72-3.3-1.62-6.61c0-.13-.06-.26-.1-.39s-.15-.48-.22-.71q-.8-2.85-1.74-5.7c0-.11-.06-.22-.1-.33l0-.11q-.93-2.76-2-5.5c-.08-.21-.14-.42-.22-.63l-.31-.75q-.92-2.33-1.9-4.64l-.22-.55-.07-.15q-1.11-2.57-2.33-5.08c-.08-.17-.15-.34-.23-.5s-.28-.55-.42-.83c-.65-1.33-1.32-2.66-2-4-.14-.27-.27-.55-.42-.82l-.22-.39q-1.32-2.48-2.74-4.91l-.14-.27c-.13-.22-.28-.44-.41-.67-.83-1.41-1.69-2.8-2.56-4.19-.15-.24-.29-.49-.45-.73l-.31-.47c-1.09-1.69-2.2-3.36-3.35-5l-.17-.24c-.11-.17-.24-.34-.37-.51-1.19-1.69-2.42-3.35-3.67-5l-.36-.48-.13-.17c-1.58-2-3.21-4-4.87-5.93l-.36-.43c-.09-.11-.19-.21-.29-.32q-1.55-1.77-3.14-3.48l-.14-.15c-1.1-1.18-2.23-2.33-3.37-3.46-.09-.09-.18-.19-.28-.28l-.45-.43c-1.48-1.44-3-2.85-4.52-4.21l-.4-.36c-1.59-1.39-3.2-2.71-4.83-4-.3-.25-.61-.49-.92-.73-1.6-1.23-3.23-2.41-4.87-3.53l-.87-.59c-1.72-1.14-3.45-2.25-5.21-3.26-1.41-.81-2.8-1.55-4.19-2.25l-1.19-.58c-1.06-.52-2.11-1-3.16-1.44l-.71-.33-.39-.15c-1-.4-2-.77-2.93-1.11-.24-.09-.48-.19-.72-.27-1.2-.41-2.39-.78-3.56-1.1l-.19-.06c-.63-.17-1.24-.3-1.87-.45l-1-.24c-1-.21-2-.4-3-.55h0c-1.5-.23-3-.36-4.42-.44-.17,0-.34,0-.5,0h-.37q-1.95-.08-3.84,0h-.17c-.16,0-.31,0-.47.06-1,.07-2,.19-3,.35-.18,0-.36,0-.53.06s-.25.06-.38.09c-1.13.21-2.24.45-3.31.76h0l-.12,0c-1,.3-2,.66-3,1-.12.05-.26.08-.38.14s-.3.15-.46.22c-.83.36-1.64.76-2.44,1.19-.14.08-.29.13-.42.21l-.37.21L68.84,566h0c.26-.15.53-.27.79-.41.79-.44,1.61-.83,2.44-1.19l.84-.36a30.07,30.07,0,0,1,3-1.06l.14,0a32.49,32.49,0,0,1,3.31-.76c.3-.06.61-.11.91-.15,1-.16,2-.28,3-.35.22,0,.43,0,.65-.06a37.52,37.52,0,0,1,3.83,0l.87,0c1.45.09,2.92.22,4.42.45,1,.15,2,.34,3,.55l1,.24c.68.16,1.36.32,2,.51,1.18.32,2.37.69,3.57,1.1l.72.26c1,.35,1.94.72,2.92,1.12l1.11.47c1,.45,2.1.93,3.15,1.44l1.19.59c1.39.7,2.79,1.44,4.2,2.25,1.75,1,3.48,2.11,5.2,3.26l.88.58q2.46,1.68,4.86,3.54l.93.72q2.44,1.92,4.82,4c.14.11.27.24.4.36,1.53,1.35,3,2.76,4.52,4.21l.74.71c1.13,1.13,2.26,2.28,3.37,3.46l.13.15c1.07,1.13,2.11,2.3,3.15,3.48l.64.75c1.66,1.92,3.29,3.9,4.87,5.93l.48.64c1.26,1.63,2.49,3.3,3.69,5l.53.75c1.15,1.64,2.26,3.3,3.35,5,.26.4.51.81.77,1.22q1.31,2.07,2.56,4.19l.55.92q1.41,2.43,2.74,4.92l.63,1.2q1,2,2,4l.65,1.32c.8,1.69,1.58,3.38,2.32,5.08l.3.71q1,2.31,1.89,4.64c.18.46.36.92.53,1.38.7,1.83,1.37,3.66,2,5.51.05.13.09.27.13.41.63,1.91,1.21,3.81,1.75,5.72l.31,1.09c.61,2.21,1.14,4.42,1.62,6.62.11.48.21,1,.31,1.44.18.86.34,1.72.5,2.58.11.61.22,1.21.32,1.82.14.88.27,1.76.4,2.64.07.53.15,1.07.22,1.6.24,1.9.42,3.79.56,5.67,0,.4.05.8.07,1.2.11,1.92.19,3.84.18,5.74-.05,20.83-7.41,35.49-19.28,42.39l29.63-17.22c11.86-6.9,19.22-21.56,19.28-42.39C211.39,665.59,211.31,663.68,211.2,661.75Z"/><g class="cls-53"><path class="cls-11" d="M208.57,674a105.92,105.92,0,0,0-1.37-20.3c-.27-1.67-.55-3.34-.91-5l-.52-2.48-.63-2.46-1.28-4.92L202.32,634a159.3,159.3,0,0,0-7.56-18.82,173.13,173.13,0,0,0-9.9-17.7,151.46,151.46,0,0,0-26-31,115.1,115.1,0,0,0-16.26-12.1c-1.47-.83-2.93-1.69-4.42-2.5s-3-1.49-4.56-2.24a72,72,0,0,0-9.6-3.41c1.68.3,3.32.78,5,1.24s3.23,1.1,4.85,1.66,3.15,1.32,4.7,2,3.06,1.54,4.59,2.31a116.38,116.38,0,0,1,16.81,11.78,127.62,127.62,0,0,1,14.44,14.6l3.28,4c1.11,1.3,2.07,2.72,3.11,4.08,2.1,2.71,4,5.59,5.89,8.43a153.88,153.88,0,0,1,17.22,37.17l1.42,4.93,1.16,5L207,646l.45,2.52c.31,1.69.56,3.38.77,5.08A97,97,0,0,1,208.57,674Z"/></g><path class="cls-54" d="M115.88,570.58c-36.52-21.08-66.21-4.14-66.33,37.8s29.38,93,65.9,114.11,66.19,4.16,66.3-37.78S152.38,591.65,115.88,570.58Z"/><g class="cls-53"><path class="cls-11" d="M121.24,573.92c-1.27-.52-2.48-1.11-3.68-1.69s-2.38-1.21-3.58-1.78c-2.41-1.14-4.8-2.26-7.24-3.28s-4.89-2-7.38-2.88-5-1.64-7.64-2.42a31.49,31.49,0,0,1,8.09.85c1.34.27,2.63.68,3.94,1.08s2.56.91,3.81,1.44a51,51,0,0,1,7.21,3.78c.56.37,1.15.71,1.69,1.12l1.63,1.22C119.16,572.19,120.23,573,121.24,573.92Z"/></g><g class="cls-53"><path class="cls-11" d="M178.15,657.56c-2-6.23-4.36-12.32-7-18.28a191.33,191.33,0,0,0-8.71-17.43c-3.17-5.68-6.66-11.16-10.38-16.5s-7.72-10.48-12-15.46a112,112,0,0,1,13.29,14.49,135.22,135.22,0,0,1,19.28,34.28A110.26,110.26,0,0,1,178.15,657.56Z"/></g><path class="cls-55" d="M176.15,681.89c-.06,25.44-12,41.25-31.05,41.25-8.16,0-17.44-2.86-26.85-8.3C83.33,694.69,55,645.68,55.17,605.58c0-25.45,12-41.25,31.05-41.25.59,0,1.2,0,1.82,0C70.69,565.28,60,580.27,59.9,604c-.11,38.51,27.07,85.61,60.62,105,9,5.21,18,8,25.81,8,17.68,0,28.95-14.18,29.79-37.13C176.15,680.51,176.15,681.19,176.15,681.89Z"/><path class="cls-56" d="M176.12,679.81c-.84,23-12.11,37.13-29.79,37.13-7.85,0-16.76-2.77-25.81-8C87,689.59,59.79,642.49,59.9,604c.06-23.71,10.79-38.7,28.14-39.6,0,0,.06,0,.08,0,7.68.4,16.26,3.23,24.94,8.24C147.39,592.44,175.28,640.1,176.12,679.81Z"/><path class="cls-11" d="M92.76,611.5l6.89,6.42a18.9,18.9,0,0,1,2.27-6.66,6.33,6.33,0,0,1,4-2.93,8.55,8.55,0,0,1,5.54.93,26.93,26.93,0,0,1,6.88,4.89,66.22,66.22,0,0,1,5.94,6.18c1.58,1.9,3,3.74,4.21,5.54l-1.66,7c-1.05-1.41-2.28-3-3.68-4.61a55.76,55.76,0,0,0-4.28-4.42c-2.27-2.11-4.09-2.83-5.65-2.43s-2.57,2.48-3.14,6.06l16.24,15.11.06,6.23-16.76-15.6c0,.44,0,.77,0,1.21s0,.76,0,1.2c0,1.42,0,2.62.12,3.9L126.4,655l.06,6.23-16-14.87a41.88,41.88,0,0,0,3.4,11.18,24.84,24.84,0,0,0,5.43,7.55,38.52,38.52,0,0,0,5.06,4,28.46,28.46,0,0,0,4,2.21l1.66,10.2a17.68,17.68,0,0,1-4.78-2.39,53.51,53.51,0,0,1-7.07-5.7,46.35,46.35,0,0,1-6.38-7.35,68,68,0,0,1-5.28-8.81,76.52,76.52,0,0,1-4-9.89A72.29,72.29,0,0,1,100,636.88l-7.16-6.66L92.79,624l6.37,5.92c-.1-1.28-.11-2.59-.12-3.9,0-.44,0-.77,0-1.2s0-.77,0-1.21l-6.38-5.92-.06-6.34Z"/><path class="cls-57" d="M1106.59,259.23c0-.4,0-.8-.08-1.2q-.19-2.82-.55-5.67c0-.11,0-.22,0-.33-.06-.41-.13-.84-.19-1.25-.13-.89-.26-1.78-.41-2.67-.1-.6-.21-1.2-.32-1.8-.15-.86-.32-1.72-.49-2.59-.06-.28-.11-.57-.17-.86s-.1-.39-.14-.58c-.48-2.2-1-4.41-1.62-6.61,0-.13-.06-.26-.1-.39s-.15-.48-.22-.71q-.8-2.87-1.74-5.7c0-.11-.06-.22-.1-.33l0-.11q-.93-2.76-2-5.5c-.08-.21-.14-.42-.22-.63l-.31-.75q-.92-2.33-1.9-4.64c-.07-.18-.14-.37-.22-.55l-.07-.15q-1.11-2.57-2.33-5.08l-.23-.51c-.13-.27-.28-.54-.42-.82-.65-1.33-1.32-2.66-2-4-.14-.27-.27-.55-.42-.82l-.22-.39c-.88-1.66-1.79-3.29-2.73-4.92a2.2,2.2,0,0,1-.15-.26c-.13-.23-.28-.44-.41-.67-.83-1.41-1.69-2.81-2.56-4.19-.15-.24-.29-.49-.45-.73l-.31-.47c-1.09-1.69-2.2-3.36-3.35-5-.06-.08-.11-.17-.16-.25l-.37-.5q-1.8-2.53-3.68-5l-.36-.47-.13-.17c-1.58-2-3.21-4-4.87-5.93l-.36-.43-.29-.33q-1.55-1.76-3.14-3.47l-.14-.15c-1.1-1.18-2.23-2.33-3.37-3.46l-.28-.28-.45-.43q-2.22-2.17-4.52-4.21l-.4-.36q-2.38-2.08-4.83-4l-.92-.72c-1.6-1.24-3.23-2.42-4.87-3.53l-.87-.59c-1.72-1.14-3.45-2.25-5.21-3.26-1.41-.81-2.8-1.55-4.19-2.25l-1.19-.58c-1.06-.52-2.11-1-3.16-1.45-.23-.1-.48-.23-.71-.32l-.39-.15c-1-.4-2-.77-2.93-1.12l-.71-.26c-1.21-.41-2.4-.78-3.57-1.1l-.19-.06c-.63-.17-1.24-.31-1.87-.45l-1-.24c-1-.21-2-.4-3-.55h0c-1.5-.23-3-.36-4.42-.44-.17,0-.34-.05-.5-.05h-.37q-1.95-.07-3.84,0h-.17c-.16,0-.31,0-.47.06-1,.07-2,.19-3,.35-.18,0-.36,0-.53.06s-.25.06-.38.09a32.49,32.49,0,0,0-3.31.76h0l-.12.05c-1,.3-2,.66-3,1.05-.13,0-.27.08-.39.14s-.3.15-.46.22c-.83.36-1.64.76-2.44,1.19-.14.08-.29.13-.42.21l-.37.21-29.62,17.21h0c.26-.15.53-.27.79-.42.79-.43,1.61-.82,2.44-1.19l.84-.36c1-.39,2-.75,3-1l.14,0a33.15,33.15,0,0,1,3.31-.77l.91-.15c1-.15,2-.27,3-.35l.65-.05a37.52,37.52,0,0,1,3.83,0l.87,0a42.72,42.72,0,0,1,4.42.45c1,.15,2,.33,3,.55l1,.23c.68.16,1.36.33,2,.52,1.18.32,2.37.68,3.57,1.1l.72.26c1,.35,1.94.71,2.92,1.12l1.11.47c1,.45,2.1.93,3.15,1.44.4.19.8.38,1.19.59,1.39.7,2.79,1.43,4.2,2.25,1.75,1,3.48,2.11,5.2,3.26l.88.58q2.46,1.68,4.86,3.53l.93.73q2.45,1.92,4.82,4l.4.37c1.53,1.35,3,2.76,4.52,4.21l.74.71c1.13,1.13,2.26,2.28,3.37,3.46l.14.15c1.06,1.13,2.1,2.29,3.14,3.47l.64.76c1.66,1.92,3.29,3.9,4.87,5.93l.49.63q1.88,2.46,3.68,5l.53.75c1.15,1.63,2.26,3.3,3.35,5,.26.4.51.81.77,1.22.87,1.38,1.73,2.77,2.56,4.18l.55.93q1.41,2.43,2.74,4.92l.63,1.2q1,2,2,4l.65,1.32c.8,1.69,1.58,3.38,2.32,5.08l.3.71c.66,1.54,1.29,3.08,1.89,4.64l.54,1.37c.69,1.84,1.36,3.67,2,5.51,0,.14.09.28.13.42q.94,2.85,1.75,5.72l.31,1.09c.61,2.21,1.14,4.41,1.62,6.62.11.48.21,1,.31,1.44.18.86.34,1.72.5,2.58.11.6.22,1.21.32,1.81.15.89.27,1.77.4,2.65.07.53.15,1.07.22,1.6.24,1.9.42,3.79.56,5.66,0,.41,0,.8.07,1.2.11,1.93.19,3.85.18,5.74-.05,20.84-7.41,35.5-19.28,42.4l29.63-17.22c11.86-6.9,19.22-21.56,19.28-42.39C1106.78,263.07,1106.7,261.15,1106.59,259.23Z"/><g class="cls-53"><path class="cls-11" d="M1104,271.47a105.87,105.87,0,0,0-1.37-20.29c-.27-1.67-.55-3.34-.91-5l-.52-2.49-.63-2.46-1.28-4.91-1.54-4.84a159.3,159.3,0,0,0-7.56-18.82,170.21,170.21,0,0,0-9.9-17.7,151.46,151.46,0,0,0-26-31A116,116,0,0,0,1038,151.87c-1.47-.82-2.93-1.68-4.42-2.49s-3-1.49-4.56-2.24a73.51,73.51,0,0,0-9.6-3.42c1.68.31,3.32.79,5,1.24s3.23,1.11,4.85,1.67,3.15,1.32,4.7,2,3.06,1.54,4.59,2.31a116.38,116.38,0,0,1,16.81,11.78,126,126,0,0,1,14.44,14.6l3.28,3.95c1.11,1.31,2.07,2.73,3.11,4.09,2.1,2.71,4,5.59,5.89,8.42A154,154,0,0,1,1099.24,231l1.42,4.93,1.16,5,.57,2.51.45,2.52c.31,1.68.56,3.38.77,5.07A97,97,0,0,1,1104,271.47Z"/></g><path class="cls-58" d="M1011.27,168.06c-36.52-21.09-66.21-4.15-66.33,37.8s29.38,93,65.9,114.11,66.19,4.15,66.3-37.79S1047.77,189.13,1011.27,168.06Z"/><g class="cls-53"><path class="cls-11" d="M1016.63,171.4c-1.27-.52-2.48-1.11-3.68-1.69s-2.38-1.21-3.58-1.78c-2.4-1.14-4.8-2.26-7.24-3.28s-4.89-2-7.38-2.88-5-1.64-7.64-2.43a32.39,32.39,0,0,1,8.09.85c1.34.28,2.63.69,3.94,1.08s2.56.92,3.81,1.45a51,51,0,0,1,7.21,3.78c.56.37,1.15.71,1.69,1.12l1.63,1.21C1014.55,169.67,1015.62,170.5,1016.63,171.4Z"/></g><g class="cls-53"><path class="cls-11" d="M1073.54,255c-2-6.23-4.36-12.32-7-18.28a190.23,190.23,0,0,0-8.71-17.44,193.32,193.32,0,0,0-10.38-16.49c-3.75-5.31-7.72-10.48-12-15.47a112.78,112.78,0,0,1,13.29,14.5,135.22,135.22,0,0,1,19.28,34.28A109.37,109.37,0,0,1,1073.54,255Z"/></g><path class="cls-55" d="M1071.54,279.37c-.06,25.44-12,41.25-31,41.25-8.16,0-17.43-2.86-26.85-8.3-34.92-20.15-63.22-69.16-63.08-109.26.05-25.45,12-41.25,31.05-41.25.59,0,1.2,0,1.82.05-17.35.9-28.08,15.89-28.14,39.6-.11,38.5,27.07,85.61,60.62,105,9.05,5.21,18,8,25.81,8,17.68,0,29-14.18,29.79-37.13C1071.54,278,1071.54,278.66,1071.54,279.37Z"/><path class="cls-56" d="M1071.51,277.29c-.84,22.95-12.11,37.13-29.79,37.13-7.85,0-16.76-2.77-25.81-8-33.55-19.37-60.73-66.48-60.62-105,.06-23.71,10.79-38.7,28.14-39.6,0,0,.06,0,.08,0,7.68.39,16.26,3.23,24.94,8.24C1042.78,189.91,1070.67,237.58,1071.51,277.29Z"/><path class="cls-11" d="M988.15,209l6.89,6.41a19,19,0,0,1,2.27-6.65,6.33,6.33,0,0,1,4-2.93,8.55,8.55,0,0,1,5.54.93,26.93,26.93,0,0,1,6.88,4.89,67.78,67.78,0,0,1,5.95,6.18q2.36,2.85,4.2,5.53l-1.66,7c-1-1.41-2.28-3-3.68-4.61a52.54,52.54,0,0,0-4.28-4.42c-2.27-2.11-4.09-2.83-5.65-2.44s-2.57,2.49-3.14,6.07l16.24,15.11.06,6.23L1005,230.69c0,.44,0,.77,0,1.2s0,.77,0,1.21c0,1.42,0,2.62.12,3.9l16.68,15.52.06,6.22-16-14.86a41.69,41.69,0,0,0,3.4,11.17,24.84,24.84,0,0,0,5.43,7.55,38.68,38.68,0,0,0,5.06,4.06,29.52,29.52,0,0,0,4,2.21l1.66,10.2a17.68,17.68,0,0,1-4.78-2.39,53.72,53.72,0,0,1-7.07-5.71,45.48,45.48,0,0,1-6.38-7.35,67.86,67.86,0,0,1-5.28-8.8,77.1,77.1,0,0,1-4-9.89,72.42,72.42,0,0,1-2.52-10.58l-7.16-6.66-.06-6.23,6.37,5.93c-.1-1.28-.11-2.59-.12-3.9,0-.44,0-.77,0-1.21s0-.76,0-1.2L988,215.15l-.06-6.33Z"/></g></g></g></svg>