<svg xmlns="http://www.w3.org/2000/svg" viewBox="0 0 1122 1122"><defs><style>.cls-1{fill:transparent;}.cls-2{fill:#f3d065;}.cls-3{fill:#efc45c;}.cls-4{fill:#f5d783;}.cls-5{fill:#635445;}.cls-6{fill:#d46669;}.cls-7{fill:#333;}</style></defs><title>25516 [Convertido]</title><g id="BG"><rect class="cls-1" width="1122" height="1122"/></g><g id="Object"><circle class="cls-2" cx="561" cy="561" r="275"/><path class="cls-3" d="M704.88,326.29a273.72,273.72,0,0,1,43.26,148.12c0,151.88-123.12,275-275,275A273.63,273.63,0,0,1,329.27,708.8,274.78,274.78,0,0,0,561,835.68c151.88,0,275-123.13,275-275A274.81,274.81,0,0,0,704.88,326.29Z"/><path class="cls-4" d="M323.38,590c0-141,114.31-255.32,255.32-255.32a254.89,254.89,0,0,1,202.39,99.68,255.22,255.22,0,0,0-221.4-128.06c-141,0-255.32,114.31-255.32,255.32A254.23,254.23,0,0,0,357.3,717.27,254.17,254.17,0,0,1,323.38,590Z"/><path class="cls-5" d="M677.88,692.84a117.64,117.64,0,0,0-233.76,0Z"/><path class="cls-6" d="M444.12,692.84s98.62-72.71,233.76,0Z"/><path class="cls-7" d="M412.67,565.44a11.66,11.66,0,0,1-7.18-20.85l39.67-30.9-41-24.12A11.65,11.65,0,1,1,416,469.48l55.78,32.81A11.65,11.65,0,0,1,473,521.53L419.82,563A11.59,11.59,0,0,1,412.67,565.44Z"/><path class="cls-7" d="M709.33,565.44a11.59,11.59,0,0,1-7.15-2.46L649,521.53a11.66,11.66,0,0,1,1.26-19.24L706,469.48a11.65,11.65,0,1,1,11.82,20.09l-41,24.12,39.66,30.9a11.66,11.66,0,0,1-7.18,20.85Z"/></g></svg>
