<svg xmlns="http://www.w3.org/2000/svg" width="260" height="248" viewBox="0 0 260 248">
    <g fill="none" fill-rule="evenodd">
        <path fill="#FFCE54" d="M239.825 130.061c0 60.541-49.083 109.588-109.668 109.588-60.585 0-109.668-49.047-109.668-109.588 0-60.539 49.083-109.585 109.668-109.585 60.585 0 109.668 49.046 109.668 109.585z" opacity=".5"/>
        <path fill="#FFCE54" d="M225.29 130.06c0 52.475-42.785 95.064-95.587 95.064-52.803 0-95.587-42.59-95.587-95.063 0-52.474 42.784-95.062 95.587-95.062 52.802 0 95.586 42.588 95.586 95.062z" opacity=".4"/>
        <path fill="#FFCE54" d="M210.754 130.515c0 44.693-36.271 80.993-81.052 80.993-44.78 0-81.052-36.3-81.052-80.993 0-44.692 36.271-80.991 81.052-80.991 44.78 0 81.052 36.3 81.052 80.991z" opacity=".6"/>
        <path fill="#AAB2BD" d="M164.545 229.933l-8.128 8.074h-52.834l-8.128-8.074V201.67h69.09z"/>
        <path fill="#FFF" d="M103.808 201.124H95.88v28.551l7.928 8.157h7.928l-7.928-8.157z" opacity=".4"/>
        <path fill="#000" d="M156.499 201.124h7.927v28.551l-7.927 8.157h-7.929l7.929-8.157z" opacity=".3"/>
        <path fill="#E6E9ED" d="M196.364 130.6c0-37.01-29.917-67.01-66.818-67.01-36.901 0-66.819 30-66.819 67.01 0 24.363 13.007 45.625 32.397 57.356v13.714h68.843v-13.714c19.39-11.731 32.397-32.993 32.397-57.356z"/>
        <g fill="#FFF">
            <path d="M130.157 63.138c1.371 0 2.715.112 4.063.203-35.087 2.101-62.916 31.038-62.916 66.53 0 36 24.352 57.119 24.352 57.119-19.434-11.683-32.47-32.857-32.47-57.12 0-36.855 29.986-66.732 66.97-66.732z"/>
            <path d="M130.16 63.138c-1.37 0-2.714.112-4.062.203 35.087 2.101 62.916 31.038 62.916 66.53 0 36-24.353 57.119-24.353 57.119 19.434-11.683 32.47-32.857 32.47-57.12 0-36.855-29.984-66.732-66.97-66.732z"/>
        </g>
        <path fill="#656D78" d="M111.818 238.007s4.04 8.176 18.182 8.176c14.141 0 18.182-8.176 18.182-8.176h-36.364z"/>
        <path fill="#FFF" d="M119.406 238.323h-8.075s4.037 7.69 18.169 7.69a33.43 33.43 0 0 0 4.037-.248c-10.859-1.277-14.131-7.442-14.131-7.442z" opacity=".4"/>
        <path fill="#000" d="M139.997 238.323h8.075s-4.037 7.69-18.168 7.69c-1.46 0-2.788-.098-4.038-.248 10.859-1.277 14.131-7.442 14.131-7.442z" opacity=".3"/>
        <path fill="#000" d="M94.983 197.49h69.438v4.034H94.983z" opacity=".2"/>
        <g fill="#EC87C0">
            <path d="M162.662 112.007a8.093 8.093 0 0 1 8.125 8.12 8.093 8.093 0 0 1-8.125 8.119 6.083 6.083 0 0 1 6.093 6.09c0 2.517-1.503 4.63-3.658 5.6 2.845 5.4 1.993 12.14-2.515 16.647-3.372 3.327-7.922 4.666-12.27 3.977h-.04a9.794 9.794 0 0 1-2.765 5.316 10.15 10.15 0 0 1-14.378 0c-1.912-1.946-2.928-4.464-2.967-7.02V95.768a8.094 8.094 0 0 1 8.125-8.12 8.094 8.094 0 0 1 8.124 8.12 8.118 8.118 0 0 1-.65 3.165c1.79-1.582 4.146-2.515 6.744-2.515a10.106 10.106 0 0 1 10.157 10.149c0 2.07-.611 4.018-1.706 5.601.567-.08 1.139-.162 1.706-.162z"/>
            <path d="M130.161 140.425v18.43a10.06 10.06 0 0 1-2.968 7.022 10.149 10.149 0 0 1-14.377 0 9.791 9.791 0 0 1-2.766-5.316h-.04c-4.304.689-8.898-.65-12.228-3.977-4.51-4.507-5.363-11.247-2.558-16.647-2.154-.97-3.658-3.084-3.658-5.601 0-3.37 2.721-6.09 6.094-6.09a8.094 8.094 0 0 1-8.125-8.119 8.094 8.094 0 0 1 8.125-8.12c.61 0 1.178.082 1.706.163-1.095-1.583-1.706-3.532-1.706-5.601a10.13 10.13 0 0 1 10.157-10.149c2.598 0 4.955.933 6.744 2.515a8.118 8.118 0 0 1-.65-3.165 8.094 8.094 0 0 1 8.125-8.12 8.093 8.093 0 0 1 8.125 8.119v44.656z"/>
        </g>
        <g fill="#FFF" opacity=".5">
            <path d="M118.952 98.934a8.042 8.042 0 0 1-.658-3.165c0-3.8 2.612-6.938 6.162-7.836-.658-.167-1.34-.283-2.054-.283-4.56 0-8.215 3.613-8.215 8.119 0 .305.06.59.092.884 1.769.36 3.373 1.146 4.673 2.281zM117.187 165.877a9.751 9.751 0 0 1-2.796-5.316h-.04a14.4 14.4 0 0 1-12.363-3.977c-4.561-4.507-5.424-11.247-2.588-16.647-2.178-.97-3.699-3.084-3.699-5.601 0-3.37 2.752-6.09 6.162-6.09-4.56 0-8.215-3.613-8.215-8.119 0-4.505 3.654-8.12 8.215-8.12.618 0 1.192.082 1.725.163-1.107-1.583-1.725-3.532-1.725-5.601 0-4.94 3.526-9.007 8.204-9.945a10.758 10.758 0 0 0-2.042-.204c-5.668 0-10.27 4.506-10.27 10.149 0 2.07.618 4.018 1.725 5.601-.533-.08-1.107-.162-1.725-.162-4.56 0-8.216 3.614-8.216 8.12 0 4.505 3.655 8.118 8.216 8.118-3.41 0-6.162 2.72-6.162 6.09 0 2.517 1.52 4.63 3.699 5.601-2.837 5.4-1.974 12.14 2.587 16.647a14.402 14.402 0 0 0 12.364 3.977h.04a9.755 9.755 0 0 0 2.796 5.316c2.54 2.513 6.057 3.43 9.323 2.771-1.91-.385-3.73-1.3-5.215-2.771z"/>
        </g>
        <g fill="#FFF" opacity=".5">
            <path d="M141.373 98.934c.414-.973.658-2.03.658-3.165 0-3.8-2.611-6.938-6.161-7.836.657-.167 1.34-.283 2.054-.283 4.56 0 8.215 3.613 8.215 8.119 0 .305-.06.59-.092.884-1.77.36-3.374 1.146-4.674 2.281zM143.139 165.877a9.755 9.755 0 0 0 2.796-5.316h.04c4.352.689 8.998-.65 12.363-3.977 4.561-4.507 5.424-11.247 2.587-16.647 2.178-.97 3.699-3.084 3.699-5.601 0-3.37-2.752-6.09-6.162-6.09 4.561 0 8.216-3.613 8.216-8.119 0-4.505-3.655-8.12-8.216-8.12-.617 0-1.19.082-1.724.163 1.107-1.583 1.724-3.532 1.724-5.601 0-4.94-3.525-9.007-8.203-9.945.657-.127 1.34-.204 2.042-.204 5.668 0 10.27 4.506 10.27 10.149 0 2.07-.619 4.018-1.726 5.601.534-.08 1.107-.162 1.725-.162 4.561 0 8.215 3.614 8.215 8.12 0 4.505-3.654 8.118-8.215 8.118 3.41 0 6.161 2.72 6.161 6.09 0 2.517-1.52 4.63-3.698 5.601 2.836 5.4 1.974 12.14-2.587 16.647a14.4 14.4 0 0 1-12.364 3.977h-.04a9.758 9.758 0 0 1-2.795 5.316c-2.54 2.513-6.058 3.43-9.323 2.771 1.909-.385 3.73-1.3 5.215-2.771z"/>
        </g>
        <g fill="#3A3847">
            <path d="M119.758 170.806c-3.25 0-6.311-1.271-8.619-3.575-1.772-1.77-2.926-3.987-3.33-6.407-.797-3.864.444-7.935 3.33-10.809a2.03 2.03 0 0 1 2.87 0 2.023 2.023 0 0 1 0 2.866c-1.919 1.913-2.743 4.601-2.207 7.198a7.768 7.768 0 0 0 2.207 4.284c3.085 3.08 8.413 3.08 11.497 0a8.049 8.049 0 0 0 2.37-5.61c.02-1.12.944-1.92 2.063-1.996a2.03 2.03 0 0 1 1.998 2.059 12.082 12.082 0 0 1-3.56 8.414 12.12 12.12 0 0 1-8.62 3.576zM107.58 118.729c-4.1 0-7.894-2.04-10.142-5.454-1.324-1.915-2.038-4.249-2.038-6.71 0-6.707 5.463-12.162 12.18-12.162 3.008 0 5.878 1.072 8.082 3.02.84.743.92 2.024.175 2.863-.745.836-2.03.911-2.862.175-1.463-1.293-3.378-2.003-5.396-2.003-4.476 0-8.12 3.636-8.12 8.108 0 1.636.465 3.17 1.344 4.443 1.523 2.31 4.044 3.666 6.776 3.666a2.028 2.028 0 1 1 0 4.054zM94.996 141.918c-.282 0-.563-.059-.836-.178-2.99-1.354-4.849-4.204-4.849-7.444 0-4.473 3.644-8.108 8.12-8.108a2.027 2.027 0 1 1 0 4.054 4.062 4.062 0 0 0-4.06 4.054c0 1.624.943 3.065 2.462 3.746a2.03 2.03 0 0 1 1.014 2.685 2.034 2.034 0 0 1-1.851 1.191z"/>
            <path d="M97.43 130.242c-5.598 0-10.15-4.547-10.15-10.135 0-5.589 4.552-10.136 10.15-10.136.722 0 1.391.09 2.014.186a2.029 2.029 0 0 1 1.697 2.312 2.037 2.037 0 0 1-2.316 1.695c-.432-.067-.895-.139-1.395-.139-3.358 0-6.09 2.728-6.09 6.082 0 3.353 2.732 6.081 6.09 6.081a2.027 2.027 0 1 1 0 4.054zM121.788 105.916c-4.108 0-7.775-2.431-9.345-6.195a10.195 10.195 0 0 1-.804-3.94c0-5.59 4.55-10.137 10.149-10.137 5.597 0 10.149 4.547 10.149 10.136 0 1.12-.908 2.027-2.03 2.027a2.028 2.028 0 0 1-2.03-2.027c0-3.353-2.732-6.082-6.09-6.082-3.358 0-6.089 2.728-6.089 6.082 0 .8.167 1.6.492 2.378.939 2.253 3.135 3.704 5.597 3.704a2.027 2.027 0 1 1 0 4.054zM107.567 162.689a16.223 16.223 0 0 1-11.45-4.74c-5.038-5.028-6.211-12.661-2.92-18.992a15.758 15.758 0 0 1 2.925-3.987c6.311-6.31 16.619-6.291 22.962.04a2.024 2.024 0 0 1 0 2.866 2.03 2.03 0 0 1-2.87 0c-4.761-4.751-12.488-4.767-17.226-.04a11.937 11.937 0 0 0-2.188 2.982c-2.474 4.763-1.594 10.488 2.188 14.266a12.118 12.118 0 0 0 10.463 3.404c1.082-.19 2.145.57 2.327 1.68a2.029 2.029 0 0 1-1.685 2.32c-.84.134-1.685.201-2.526.201zM140.056 170.806c-3.25 0-6.312-1.271-8.62-3.575-2.251-2.29-3.512-5.274-3.56-8.414a2.03 2.03 0 0 1 2-2.06c1.149.053 2.045.876 2.06 1.996.033 2.095.88 4.094 2.387 5.627 3.053 3.049 8.397 3.065 11.481-.016a7.717 7.717 0 0 0 2.196-4.213 7.938 7.938 0 0 0-2.196-7.27 2.023 2.023 0 0 1 0-2.865 2.03 2.03 0 0 1 2.87 0c2.887 2.874 4.127 6.944 3.318 10.88-.392 2.348-1.546 4.565-3.318 6.335a12.122 12.122 0 0 1-8.618 3.575zM152.235 118.729a2.027 2.027 0 1 1 0-4.055 8.047 8.047 0 0 0 6.747-3.629c.908-1.31 1.372-2.844 1.372-4.48 0-4.547-3.568-8.108-8.12-8.108-2.017 0-3.932.71-5.395 2.003a2.036 2.036 0 0 1-2.862-.175 2.024 2.024 0 0 1 .174-2.862c2.205-1.948 5.075-3.021 8.084-3.021 6.716 0 12.178 5.456 12.178 12.162 0 2.462-.713 4.796-2.065 6.747-2.22 3.379-6.014 5.418-10.113 5.418zM164.818 141.918c-.773 0-1.511-.443-1.852-1.191a2.03 2.03 0 0 1 1.015-2.685c1.519-.68 2.462-2.122 2.462-3.746a4.062 4.062 0 0 0-4.06-4.054 2.027 2.027 0 1 1 0-4.054c4.477 0 8.12 3.635 8.12 8.108 0 3.24-1.86 6.09-4.849 7.444a2.09 2.09 0 0 1-.836.178z"/>
            <path d="M162.384 130.242a2.027 2.027 0 1 1 0-4.054c3.357 0 6.089-2.728 6.089-6.081 0-3.354-2.732-6.082-6.09-6.082-.471 0-.943.075-1.415.142-1.09.155-2.14-.607-2.299-1.72a2.028 2.028 0 0 1 1.721-2.294c.662-.096 1.332-.182 1.994-.182 5.598 0 10.149 4.547 10.149 10.136 0 5.588-4.551 10.135-10.15 10.135zM138.026 105.916a2.027 2.027 0 1 1 0-4.054c2.462 0 4.658-1.451 5.594-3.7a6.124 6.124 0 0 0 .496-2.382c0-3.353-2.732-6.082-6.09-6.082-3.357 0-6.089 2.728-6.089 6.082 0 1.12-.908 2.027-2.03 2.027a2.028 2.028 0 0 1-2.03-2.027c0-5.589 4.551-10.136 10.15-10.136 5.598 0 10.148 4.547 10.148 10.136 0 1.342-.273 2.669-.808 3.945-1.566 3.76-5.234 6.19-9.341 6.19zM152.306 162.693a15.88 15.88 0 0 1-2.581-.205 2.027 2.027 0 0 1-1.689-2.32c.175-1.105 1.241-1.87 2.323-1.68 3.85.595 7.695-.633 10.518-3.416 3.778-3.773 4.643-9.499 2.145-14.234a10.915 10.915 0 0 0-2.153-3.001c-4.737-4.727-12.464-4.708-17.225.04a2.03 2.03 0 0 1-2.87 0 2.024 2.024 0 0 1 0-2.867c6.347-6.335 16.65-6.35 22.966-.04 1.225 1.228 2.204 2.586 2.906 4.039 3.299 6.256 2.145 13.893-2.906 18.942-3.129 3.08-7.188 4.742-11.434 4.742zM156.295 239.71H103.52c-.54 0-1.055-.214-1.435-.594l-8.12-8.108a2.024 2.024 0 0 1-.595-1.434v-28.38c0-1.12.908-2.027 2.03-2.027 1.122 0 2.03.906 2.03 2.027v27.541l6.93 6.92h51.094l6.93-6.92v-27.541c0-1.12.908-2.027 2.03-2.027 1.122 0 2.03.906 2.03 2.027v28.38c0 .54-.215 1.053-.595 1.434l-8.12 8.108a2.03 2.03 0 0 1-1.434.595z"/>
            <path d="M91.34 215.384a2.025 2.025 0 0 1-2.025-1.924 2.03 2.03 0 0 1 1.927-2.13l4.06-.199 73.072-3.856c1.123-.068 2.074.812 2.126 1.924a2.029 2.029 0 0 1-1.927 2.13l-4.06.198-73.072 3.857h-.1zM91.34 227.547a2.03 2.03 0 0 1-.099-4.054l4.06-.199 73.073-3.856c1.123-.036 2.074.812 2.126 1.924a2.03 2.03 0 0 1-1.927 2.13l-4.06.198-73.072 3.856h-.1z"/>
            <path fill-rule="nonzero" d="M164.413 203.221H95.4a2.027 2.027 0 0 1-2.03-2.027v-12.567c-20.36-12.717-32.476-34.454-32.476-58.384 0-38.006 30.958-68.925 69.013-68.925 38.055 0 69.013 30.919 69.013 68.925 0 23.93-12.115 45.667-32.477 58.384v12.567c0 1.12-.907 2.027-2.03 2.027zm-66.983-4.054h64.954V187.49c0-.708.372-1.366.979-1.738 19.723-11.883 31.497-32.634 31.497-55.51 0-35.769-29.138-64.87-64.953-64.87s-64.954 29.101-64.954 64.87c0 22.876 11.775 43.627 31.498 55.51.606.372.979 1.029.979 1.738v11.676z"/>
            <path d="M129.907 247.819c-15.287 0-19.894-8.854-20.084-9.23a2.027 2.027 0 0 1 .908-2.72 2.035 2.035 0 0 1 2.716.892c.158.305 3.846 7.004 16.46 7.004 12.635 0 16.31-6.72 16.46-7.008a2.042 2.042 0 0 1 2.728-.871 2.02 2.02 0 0 1 .897 2.704c-.191.375-4.798 9.229-20.085 9.229zM42.625 132.27H2.03a2.027 2.027 0 1 1 0-4.055h40.595a2.028 2.028 0 1 1 0 4.054zM257.784 132.27h-40.596a2.027 2.027 0 1 1 0-4.055h40.596a2.027 2.027 0 1 1 0 4.054zM19.16 196.125a2.025 2.025 0 0 1-1.756-1.013c-.563-.97-.23-2.21.74-2.772l35.158-20.272a2.031 2.031 0 0 1 2.77.745c.563.97.23 2.21-.74 2.772l-35.157 20.271c-.322.183-.67.27-1.015.27zM205.497 88.685a2.022 2.022 0 0 1-1.757-1.014c-.562-.97-.23-2.209.742-2.77l35.157-20.27a2.028 2.028 0 0 1 2.03 3.511l-35.157 20.272a2.03 2.03 0 0 1-1.015.271zM173.547 56.777a2.024 2.024 0 0 1-1.757-3.04l20.3-35.11a2.03 2.03 0 0 1 2.77-.743c.972.56 1.304 1.8.742 2.77l-20.299 35.109a2.021 2.021 0 0 1-1.756 1.014zM129.907 45.1a2.028 2.028 0 0 1-2.03-2.027V2.53c0-1.12.908-2.027 2.03-2.027 1.122 0 2.03.906 2.03 2.027v40.543c0 1.12-.908 2.027-2.03 2.027zM86.266 56.777a2.02 2.02 0 0 1-1.756-1.014l-20.298-35.11c-.563-.97-.23-2.209.741-2.77a2.024 2.024 0 0 1 2.771.743l20.299 35.11a2.023 2.023 0 0 1-1.757 3.04zM240.654 196.125a2.05 2.05 0 0 1-1.015-.269l-35.157-20.271a2.027 2.027 0 0 1-.741-2.772c.56-.974 1.8-1.29 2.771-.745l35.157 20.272a2.027 2.027 0 0 1 .741 2.772 2.026 2.026 0 0 1-1.756 1.013zM54.317 88.685c-.345 0-.694-.087-1.015-.271L18.145 68.142a2.023 2.023 0 0 1-.741-2.77 2.036 2.036 0 0 1 2.77-.742l35.157 20.272c.972.56 1.304 1.8.742 2.77a2.022 2.022 0 0 1-1.756 1.013zM129.907 160.813a2.028 2.028 0 0 1-2.03-2.028V95.78c0-1.12.908-2.027 2.03-2.027 1.122 0 2.03.907 2.03 2.027v63.005c0 1.12-.908 2.028-2.03 2.028z"/>
            <path d="M135.996 146.46c-5.253 0-7.798-4.965-7.905-5.175a2.027 2.027 0 0 1 .908-2.72 2.038 2.038 0 0 1 2.72.895c.031.064 1.57 2.946 4.277 2.946a2.027 2.027 0 1 1 0 4.054z"/>
            <path d="M123.817 146.46a2.027 2.027 0 1 1 0-4.054c2.724 0 4.266-2.914 4.282-2.946a2.027 2.027 0 0 1 2.724-.883 2.02 2.02 0 0 1 .899 2.708c-.107.21-2.651 5.175-7.905 5.175zM140.056 122.134c-9.634 0-12.18-6.63-12.18-10.136 0-1.12.909-2.027 2.031-2.027 1.118 0 2.022.9 2.03 2.013.011.644.352 6.095 8.119 6.095a2.027 2.027 0 1 1 0 4.055z"/>
            <path d="M119.758 122.134a2.027 2.027 0 1 1 0-4.055c8.028 0 8.12-5.834 8.12-6.081 0-1.12.907-2.027 2.03-2.027 1.121 0 2.03.906 2.03 2.027-.001 3.506-2.546 10.136-12.18 10.136z"/>
        </g>
    </g>
</svg>
