<svg xmlns="http://www.w3.org/2000/svg" xmlns:xlink="http://www.w3.org/1999/xlink" width="159.021" height="28.55" viewBox="0 0 159.021 28.55"><defs><clipPath id="a"><rect width="47" height="18" transform="translate(109 323)" fill="#fff"/></clipPath></defs><g transform="translate(-107.699 -319.45)"><g transform="translate(62)"><path d="M.108-18.5h2.8L8.367-5.219,13.844-18.5h2.764L9.765-2.3h-2.8Zm18.2,8.075A8.887,8.887,0,0,1,19.347-14.7a7.935,7.935,0,0,1,2.905-3.079,7.861,7.861,0,0,1,4.179-1.138,7.7,7.7,0,0,1,4.246,1.163,7.371,7.371,0,0,1,2.739,3.12,10.216,10.216,0,0,1,.924,4.414v.639h-13.3a6.016,6.016,0,0,0,1.74,4,5.589,5.589,0,0,0,4.154,1.605,7.388,7.388,0,0,0,2.789-.541,6.942,6.942,0,0,0,2.339-1.54l1.215,1.638a9.048,9.048,0,0,1-6.543,2.523,8.185,8.185,0,0,1-6.06-2.375A8.353,8.353,0,0,1,18.307-10.428ZM21-11.46H31.809a5.828,5.828,0,0,0-.341-1.851,6,6,0,0,0-.957-1.72,4.6,4.6,0,0,0-1.7-1.3,5.621,5.621,0,0,0-2.414-.5,5.278,5.278,0,0,0-2.3.491,4.707,4.707,0,0,0-1.673,1.286,6.587,6.587,0,0,0-1.007,1.72A5.913,5.913,0,0,0,21-11.46ZM37.071-4.45l1.282-1.818A7.045,7.045,0,0,0,40.7-4.613a7.308,7.308,0,0,0,3.08.672,4.772,4.772,0,0,0,2.889-.77A2.393,2.393,0,0,0,47.71-6.726a1.763,1.763,0,0,0-.566-1.327,3.8,3.8,0,0,0-1.465-.835q-.9-.295-1.981-.541T41.524-10a11.063,11.063,0,0,1-1.99-.8,3.879,3.879,0,0,1-1.465-1.351,3.765,3.765,0,0,1-.566-2.088,4.138,4.138,0,0,1,1.632-3.333,6.873,6.873,0,0,1,4.479-1.335,8.189,8.189,0,0,1,6.094,2.359l-1.182,1.736A5.488,5.488,0,0,0,46.469-16.3a7.042,7.042,0,0,0-2.855-.565,4.392,4.392,0,0,0-2.647.729,2.186,2.186,0,0,0-1,1.826,1.5,1.5,0,0,0,.566,1.188,4.005,4.005,0,0,0,1.457.753q.891.27,1.981.508t2.181.581a10.49,10.49,0,0,1,1.981.844A3.954,3.954,0,0,1,49.591-9a4.183,4.183,0,0,1,.566,2.211,4.348,4.348,0,0,1-1.69,3.513,7.309,7.309,0,0,1-4.753,1.384A8.867,8.867,0,0,1,37.071-4.45ZM54.32,3.871V-18.5h2.547V-16.1a6.858,6.858,0,0,1,2.406-2.047,6.715,6.715,0,0,1,3.155-.77,6.744,6.744,0,0,1,5.3,2.285,9.018,9.018,0,0,1,2.023,6.2A9.127,9.127,0,0,1,67.731-4.22a6.69,6.69,0,0,1-5.3,2.326,6.5,6.5,0,0,1-3.089-.753,7.6,7.6,0,0,1-2.472-2.113V3.871ZM56.867-6.759a5.394,5.394,0,0,0,2.065,1.851,5.876,5.876,0,0,0,2.847.753,4.719,4.719,0,0,0,3.863-1.761,6.923,6.923,0,0,0,1.432-4.513,6.856,6.856,0,0,0-1.432-4.5,4.737,4.737,0,0,0-3.863-1.744,5.876,5.876,0,0,0-2.847.753,5.449,5.449,0,0,0-2.065,1.835ZM73.817-2.3V-24.679h2.547V-2.3Zm6.693-8.124A8.887,8.887,0,0,1,81.55-14.7a7.935,7.935,0,0,1,2.905-3.079,7.861,7.861,0,0,1,4.179-1.138A7.7,7.7,0,0,1,92.88-17.75a7.371,7.371,0,0,1,2.739,3.12,10.216,10.216,0,0,1,.924,4.414v.639H83.24a6.016,6.016,0,0,0,1.74,4,5.589,5.589,0,0,0,4.154,1.605,7.388,7.388,0,0,0,2.789-.541,6.942,6.942,0,0,0,2.339-1.54l1.215,1.638a9.048,9.048,0,0,1-6.543,2.523,8.185,8.185,0,0,1-6.06-2.375A8.353,8.353,0,0,1,80.51-10.428Zm2.7-1.032H94.013a5.828,5.828,0,0,0-.341-1.851,6,6,0,0,0-.957-1.72,4.6,4.6,0,0,0-1.7-1.3,5.621,5.621,0,0,0-2.414-.5,5.278,5.278,0,0,0-2.3.491,4.707,4.707,0,0,0-1.673,1.286,6.588,6.588,0,0,0-1.007,1.72A5.912,5.912,0,0,0,83.207-11.46Z" transform="translate(108.177 344.129)" fill="#fff"/><g transform="translate(0 4.886)"><g transform="translate(47 318.534)"><path d="M11.5,0,23,19H0Z" transform="translate(29 -0.42)" fill="none" stroke="#fff" stroke-linecap="square" stroke-width="1.5"/><path d="M11,0,22,19H0Z" transform="translate(0 -0.42)" fill="none" stroke="#fff" stroke-linecap="square" stroke-width="1.5"/></g></g></g><g clip-path="url(#a)"><path d="M10.5,0,21,18H0Z" transform="translate(145 338) rotate(180)" fill="none" stroke="#fff" stroke-linecap="square" stroke-width="1.5"/></g></g></svg>