<svg xmlns="http://www.w3.org/2000/svg" width="145.611" height="41.599" viewBox="0 0 145.611 41.599"><g transform="translate(-67 -569)"><g transform="translate(67 569)" fill="none"><path d="M7.443,35.583,1.864,27.312a7.842,7.842,0,0,1-.564-.836l-.2-.294.025-.017A10.151,10.151,0,0,1,0,21.424a8.8,8.8,0,0,1,3.276-7.248l-.014-.026L24.5,2.115A9.287,9.287,0,0,1,30.476,0c4.833,0,8.751,3.513,8.751,7.845q0,.225-.014.447l1.711,16.281a12.368,12.368,0,0,1,.114,1.68c0,4.853-2.806,8.942-6.629,10.179l-6.044,2.948A16.7,16.7,0,0,1,19.83,41.6C14.226,41.6,9.427,39.111,7.443,35.583Z" stroke="none"/><path d="M 19.83017730712891 38.59938049316406 C 22.40845680236816 38.59938049316406 24.89196586608887 37.96197128295898 26.82321739196777 36.80457305908203 L 26.93412590026855 36.73810195922852 L 27.05034637451172 36.68142318725586 L 33.0941276550293 33.73388290405273 L 33.28450775146484 33.64103317260742 L 33.48603820800781 33.57586288452148 C 34.71115493774414 33.17966079711914 35.83644485473633 32.2800407409668 36.65463638305664 31.0427417755127 C 37.55949783325195 29.67436218261719 38.03777694702148 28.01767158508301 38.03777694702148 26.25177192687988 C 38.03777694702148 25.82448196411133 38.00880813598633 25.39640235900879 37.95167541503906 24.97942161560059 L 37.94526672363281 24.93266296386719 L 37.94033813476562 24.88573265075684 L 36.22939682006836 8.605221748352051 L 36.20311737060547 8.355142593383789 L 36.21882629394531 8.104182243347168 C 36.22420501708984 8.018392562866211 36.22692489624023 7.931252002716064 36.22692489624023 7.845171928405762 C 36.22692489624023 5.173532009124756 33.6472282409668 3.000002145767212 30.47633743286133 3.000002145767212 C 28.95228576660156 3.000002145767212 27.51446723937988 3.501922130584717 26.4277458190918 4.413311958312988 L 26.2176456451416 4.589512348175049 L 25.97908592224121 4.72470235824585 L 5.136584281921387 16.53626251220703 L 4.988396644592285 16.63926124572754 C 4.463486671447754 17.00411224365234 3.981976509094238 17.62215232849121 3.632576465606689 18.37954139709473 C 3.21873664855957 19.27660179138184 2.999996662139893 20.32927131652832 2.999996662139893 21.42376136779785 C 2.999996662139893 22.64889144897461 3.268476486206055 23.80198287963867 3.776396512985229 24.75838279724121 L 3.836065292358398 24.87073516845703 L 3.84036660194397 24.87711143493652 L 3.888286590576172 24.95885276794434 C 3.99622654914856 25.14297294616699 4.113216400146484 25.31671142578125 4.235996723175049 25.47523307800293 L 4.296286582946777 25.55307197570801 L 4.351336479187012 25.63469123840332 L 9.930006980895996 33.90572357177734 L 9.998056411743164 34.00661087036133 L 10.05770683288574 34.1126708984375 C 10.73879623413086 35.32372283935547 12.00014686584473 36.42922210693359 13.60939693450928 37.22553253173828 C 15.42571640014648 38.12431335449219 17.57682609558105 38.59938049316406 19.83017730712891 38.59938049316406 M 19.83017730712891 41.59938049316406 C 14.22559642791748 41.59938049316406 9.427056312561035 39.11133193969727 7.442866802215576 35.5832633972168 L 1.864196538925171 27.31223297119141 C 1.662256598472595 27.0515022277832 1.473886609077454 26.77228164672852 1.300266623497009 26.47614288330078 L 1.102036595344543 26.18225288391113 L 1.126866579055786 26.16550254821777 C 0.4175065755844116 24.82981300354004 -3.433837946431595e-06 23.19281196594238 -3.433837946431595e-06 21.42376136779785 C -3.433837946431595e-06 18.26616287231445 1.330556511878967 15.52820205688477 3.276176452636719 14.17587184906006 L 3.262666463851929 14.14998245239258 L 24.49997711181641 2.114682197570801 C 26.06411743164062 0.8029021620750427 28.16549682617188 2.153930608983501e-06 30.47633743286133 2.153930608983501e-06 C 35.30923843383789 2.153930608983501e-06 39.22692489624023 3.51251220703125 39.22692489624023 7.845171928405762 C 39.22692489624023 7.995131969451904 39.22222518920898 8.143792152404785 39.21296691894531 8.291671752929688 L 40.92390823364258 24.57218170166016 C 40.99886703491211 25.11928176879883 41.03777694702148 25.68002128601074 41.03777694702148 26.25177192687988 C 41.03777694702148 31.10521125793457 38.23192596435547 35.19402313232422 34.4091682434082 36.43030166625977 L 28.36538696289062 39.37784194946289 C 26.0505256652832 40.76514053344727 23.0754566192627 41.59938049316406 19.83017730712891 41.59938049316406 Z" stroke="none" fill="#fff"/></g><path d="M.108-19.215H2.583L7.415-7.461l4.847-11.754h2.445L8.653-4.881H6.178Zm16.1,7.145a7.863,7.863,0,0,1,.921-3.775A7.021,7.021,0,0,1,19.7-18.57a6.955,6.955,0,0,1,3.7-1.007,6.81,6.81,0,0,1,3.757,1.029,6.522,6.522,0,0,1,2.423,2.761,9.04,9.04,0,0,1,.818,3.906v.565H18.626A5.323,5.323,0,0,0,20.166-7.78a4.945,4.945,0,0,0,3.676,1.42,6.537,6.537,0,0,0,2.468-.478A6.142,6.142,0,0,0,28.379-8.2l1.075,1.449a8.006,8.006,0,0,1-5.79,2.232A7.242,7.242,0,0,1,18.3-6.62,7.391,7.391,0,0,1,16.21-12.07Zm2.387-.913h9.561a5.157,5.157,0,0,0-.3-1.638,5.311,5.311,0,0,0-.847-1.522,4.071,4.071,0,0,0-1.5-1.152,4.974,4.974,0,0,0-2.136-.442,4.67,4.67,0,0,0-2.033.435,4.165,4.165,0,0,0-1.481,1.138,5.828,5.828,0,0,0-.891,1.522A5.232,5.232,0,0,0,18.6-12.983Zm14.216,6.2,1.134-1.609a6.233,6.233,0,0,0,2.077,1.464,6.466,6.466,0,0,0,2.725.594,4.222,4.222,0,0,0,2.556-.681,2.117,2.117,0,0,0,.921-1.783,1.56,1.56,0,0,0-.5-1.174,3.36,3.36,0,0,0-1.3-.739q-.8-.261-1.753-.478t-1.922-.507a9.789,9.789,0,0,1-1.76-.71,3.433,3.433,0,0,1-1.3-1.2,3.331,3.331,0,0,1-.5-1.848A3.661,3.661,0,0,1,34.64-18.4,6.081,6.081,0,0,1,38.6-19.577a7.245,7.245,0,0,1,5.392,2.087l-1.046,1.536a4.856,4.856,0,0,0-1.819-1.312,6.231,6.231,0,0,0-2.526-.5,3.886,3.886,0,0,0-2.342.645,1.934,1.934,0,0,0-.884,1.616,1.33,1.33,0,0,0,.5,1.051,3.544,3.544,0,0,0,1.289.667q.788.239,1.753.449t1.93.515a9.281,9.281,0,0,1,1.753.746,3.5,3.5,0,0,1,1.289,1.268,3.7,3.7,0,0,1,.5,1.957,3.847,3.847,0,0,1-1.5,3.109,6.467,6.467,0,0,1-4.206,1.225A7.846,7.846,0,0,1,32.813-6.78ZM48.075.583v-19.8h2.254v2.13A6.068,6.068,0,0,1,52.458-18.9a5.941,5.941,0,0,1,2.792-.681,5.967,5.967,0,0,1,4.692,2.022,7.98,7.98,0,0,1,1.79,5.486,8.075,8.075,0,0,1-1.79,5.493,5.919,5.919,0,0,1-4.692,2.058,5.752,5.752,0,0,1-2.733-.667,6.722,6.722,0,0,1-2.188-1.87V.583Zm2.254-9.406a4.772,4.772,0,0,0,1.827,1.638,5.2,5.2,0,0,0,2.519.667,4.175,4.175,0,0,0,3.418-1.558A6.125,6.125,0,0,0,59.36-12.07a6.066,6.066,0,0,0-1.267-3.978,4.191,4.191,0,0,0-3.418-1.544,5.2,5.2,0,0,0-2.519.667A4.822,4.822,0,0,0,50.329-15.3Zm15,3.942v-19.8H67.58v19.8Zm5.922-7.189a7.863,7.863,0,0,1,.921-3.775,7.021,7.021,0,0,1,2.571-2.725,6.955,6.955,0,0,1,3.7-1.007,6.81,6.81,0,0,1,3.757,1.029,6.522,6.522,0,0,1,2.423,2.761,9.04,9.04,0,0,1,.818,3.906v.565H73.664A5.323,5.323,0,0,0,75.2-7.78a4.945,4.945,0,0,0,3.676,1.42,6.537,6.537,0,0,0,2.468-.478A6.142,6.142,0,0,0,83.416-8.2l1.075,1.449A8.006,8.006,0,0,1,78.7-4.519a7.242,7.242,0,0,1-5.362-2.1A7.391,7.391,0,0,1,71.248-12.07Zm2.387-.913H83.2a5.157,5.157,0,0,0-.3-1.638,5.311,5.311,0,0,0-.847-1.522,4.071,4.071,0,0,0-1.5-1.152,4.974,4.974,0,0,0-2.136-.442,4.67,4.67,0,0,0-2.033.435,4.165,4.165,0,0,0-1.481,1.138A5.829,5.829,0,0,0,74-14.642,5.231,5.231,0,0,0,73.635-12.983Z" transform="translate(127.177 604.564)" fill="#fff"/></g></svg>